<svg width="103" height="113" viewBox="0 0 103 113" fill="none" xmlns="http://www.w3.org/2000/svg">
<path d="M74.1667 0.0256348L102.5 28.2578V107.353C102.498 108.839 101.905 110.264 100.85 111.314C99.7952 112.364 98.3644 112.954 96.8727 112.954H6.127C4.63881 112.944 3.21443 112.35 2.16157 111.302C1.1087 110.255 0.51187 108.836 0.5 107.353V5.62689C0.5 2.53265 3.02167 0.0256348 6.127 0.0256348H74.1667ZM83.5563 56.4899L63.5133 36.5242L55.5063 44.5195L67.5253 56.4899L55.512 68.466L63.519 76.4557L83.5563 56.4899ZM19.4437 56.4899L39.481 76.4557L47.4937 68.466L35.4747 56.4899L47.488 44.5138L39.4867 36.5242L19.4437 56.4899Z" fill="#FBFBFB"/>
</svg>
