<svg width="22" height="37" viewBox="0 0 22 37" fill="none" xmlns="http://www.w3.org/2000/svg">
<path d="M19.9531 0.42627H2.29688C2.03646 0.42627 1.78906 0.465332 1.55469 0.543457C1.32031 0.621582 1.125 0.73877 0.96875 0.89502C0.8125 1.10335 0.695312 1.31169 0.617188 1.52002C0.539062 1.72835 0.5 1.96273 0.5 2.22314V34.5669C0.5 34.8273 0.539062 35.0617 0.617188 35.27C0.695312 35.4784 0.8125 35.6867 0.96875 35.895C1.125 36.0513 1.32031 36.1685 1.55469 36.2466C1.78906 36.3247 2.03646 36.3638 2.29688 36.3638H19.9531C20.2135 36.3638 20.4609 36.3247 20.6953 36.2466C20.9297 36.1685 21.125 36.0513 21.2812 35.895C21.4375 35.6867 21.5547 35.4784 21.6328 35.27C21.7109 35.0617 21.75 34.8273 21.75 34.5669V2.22314C21.75 1.96273 21.7109 1.72835 21.6328 1.52002C21.5547 1.31169 21.4375 1.10335 21.2812 0.89502C21.125 0.73877 20.9297 0.621582 20.6953 0.543457C20.4609 0.465332 20.2135 0.42627 19.9531 0.42627ZM20.4219 34.5669C20.4219 34.7231 20.3828 34.8403 20.3047 34.9185C20.2266 34.9966 20.1094 35.0356 19.9531 35.0356H2.29688C2.14062 35.0356 2.02344 34.9966 1.94531 34.9185C1.86719 34.8403 1.82812 34.7231 1.82812 34.5669V28.395H20.4219V34.5669ZM20.4219 27.0669H1.82812V5.73877H20.4219V27.0669ZM20.4219 4.41064H1.82812V2.22314C1.82812 2.06689 1.86719 1.94971 1.94531 1.87158C2.02344 1.79346 2.14062 1.75439 2.29688 1.75439H19.9531C20.1094 1.75439 20.2266 1.79346 20.3047 1.87158C20.3828 1.94971 20.4219 2.06689 20.4219 2.22314V4.41064ZM9.09375 31.0513H13.1562V32.3794H9.09375V31.0513Z" fill="#4BA7D8"/>
</svg>
