<?xml version="1.0" encoding="utf-8"?>
<svg viewBox="196.0069 150.3595 80.5821 93.0426" xmlns="http://www.w3.org/2000/svg">
  <defs>
    <clipPath id="clippath0" transform="">
      <path d="M 0 841.89 L 595.276 841.89 L 595.276 0 L 0 0 Z" style="fill: none; clip-rule: nonzero;"/>
    </clipPath>
    <clipPath id="clippath1" transform="" style="clip-path: url(#clippath0);">
      <rect x="279.376" y="536.656" width="48.954" height="53.051" style="clip-rule: nonzero;"/>
    </clipPath>
  </defs>
  <g style="clip-path: url(#clippath0);" transform="matrix(-1, 0, 0, -1, 537.4682319601839, 754.1463237448424)">
    <g transform="translate(341.3843 569.4308)">
      <path d="M 0 0 C -0.036 0.573 -0.085 1.146 -0.148 1.717 C -0.211 2.288 -0.287 2.857 -0.377 3.424 C -0.467 3.992 -0.569 4.557 -0.686 5.12 C -0.802 5.683 -0.931 6.242 -1.073 6.798 C -1.216 7.355 -1.371 7.908 -1.54 8.458 C -1.709 9.007 -1.89 9.552 -2.084 10.092 C -2.278 10.633 -2.485 11.169 -2.704 11.7 C -2.924 12.231 -3.155 12.756 -3.399 13.277 C -3.644 13.797 -3.899 14.311 -4.168 14.819 C -4.437 15.327 -4.716 15.829 -5.008 16.323 C -5.3 16.818 -5.604 17.306 -5.918 17.787 C -6.232 18.267 -6.559 18.74 -6.896 19.206 C -7.232 19.671 -7.58 20.128 -7.938 20.577 C -8.297 21.026 -8.666 21.466 -9.046 21.898 C -9.425 22.33 -9.813 22.752 -10.213 23.165 C -10.612 23.579 -11.021 23.982 -11.438 24.376 C -11.856 24.771 -12.284 25.154 -12.72 25.528 C -13.156 25.902 -13.601 26.266 -14.054 26.619 C -14.507 26.972 -14.969 27.314 -15.438 27.646 C -15.907 27.977 -16.384 28.297 -16.868 28.606 C -17.353 28.915 -17.844 29.213 -18.343 29.499 C -18.841 29.784 -19.346 30.059 -19.857 30.32 C -20.368 30.583 -20.886 30.833 -21.408 31.07 C -21.932 31.308 -22.46 31.534 -22.993 31.747 C -23.527 31.959 -24.065 32.16 -24.608 32.347 C -25.151 32.535 -25.698 32.71 -26.25 32.872 C -26.801 33.034 -27.355 33.183 -27.914 33.318 C -28.473 33.454 -29.033 33.577 -29.598 33.686 C -30.161 33.795 -30.728 33.892 -31.296 33.975 C -31.865 34.057 -32.435 34.126 -33.007 34.183 C -33.578 34.239 -34.151 34.281 -34.726 34.31 C -35.299 34.339 -35.873 34.354 -36.447 34.356 L -36.553 34.356 C -37.152 34.356 -37.751 34.342 -38.35 34.312 C -38.947 34.283 -39.545 34.238 -40.141 34.18 C -40.737 34.121 -41.331 34.047 -41.924 33.959 C -42.517 33.871 -43.106 33.769 -43.694 33.651 C -44.282 33.535 -44.866 33.403 -45.447 33.257 C -46.028 33.112 -46.605 32.952 -47.179 32.778 C -47.752 32.604 -48.32 32.416 -48.884 32.214 C -49.448 32.012 -50.007 31.796 -50.561 31.567 C -51.114 31.338 -51.662 31.095 -52.203 30.839 C -52.745 30.583 -53.279 30.313 -53.808 30.031 C -54.336 29.748 -54.857 29.453 -55.371 29.145 C -55.884 28.837 -56.39 28.516 -56.888 28.183 C -57.386 27.851 -57.876 27.505 -58.357 27.148 C -58.838 26.792 -59.311 26.423 -59.773 26.043 C -60.236 25.663 -60.69 25.271 -61.134 24.869 C -61.578 24.467 -62.011 24.054 -62.435 23.63 C -62.858 23.207 -63.271 22.773 -63.673 22.329 C -64.076 21.885 -64.467 21.431 -64.847 20.968 C -65.227 20.505 -65.595 20.033 -65.952 19.552 C -66.309 19.07 -66.653 18.581 -66.986 18.083 C -67.319 17.584 -67.64 17.079 -67.947 16.565 C -68.255 16.051 -68.55 15.53 -68.833 15.001 C -69.115 14.473 -69.384 13.938 -69.641 13.396 C -69.896 12.855 -70.139 12.308 -70.369 11.754 C -70.598 11.201 -70.813 10.642 -71.015 10.078 C -71.217 9.514 -71.405 8.945 -71.579 8.372 C -71.752 7.798 -71.912 7.221 -72.058 6.64 C -72.203 6.059 -72.334 5.475 -72.451 4.887 C -72.568 4.299 -72.67 3.709 -72.758 3.117 C -72.846 2.524 -72.919 1.93 -72.978 1.333 C -73.037 0.738 -73.081 0.14 -73.11 -0.458 C -73.14 -1.057 -73.154 -1.655 -73.154 -2.254 C -73.155 -3.246 -73.258 -4.227 -73.465 -5.196 C -73.672 -6.166 -73.978 -7.104 -74.382 -8.009 L -80.041 -20.718 C -80.193 -21.06 -80.309 -21.415 -80.387 -21.781 C -80.465 -22.148 -80.504 -22.519 -80.505 -22.893 C -80.505 -23.268 -80.467 -23.639 -80.39 -24.005 C -80.313 -24.372 -80.199 -24.727 -80.047 -25.07 C -79.896 -25.413 -79.711 -25.736 -79.492 -26.04 C -79.273 -26.344 -79.025 -26.622 -78.748 -26.875 C -78.47 -27.126 -78.17 -27.347 -77.847 -27.537 C -77.523 -27.726 -77.184 -27.879 -76.828 -27.998 L -73.164 -29.207 L -73.164 -40.496 C -73.164 -40.635 -73.161 -40.775 -73.154 -40.915 C -73.147 -41.055 -73.137 -41.194 -73.123 -41.333 C -73.109 -41.473 -73.092 -41.612 -73.071 -41.75 C -73.051 -41.889 -73.027 -42.026 -73 -42.164 C -72.973 -42.301 -72.942 -42.437 -72.908 -42.573 C -72.874 -42.708 -72.837 -42.843 -72.796 -42.978 C -72.755 -43.111 -72.711 -43.244 -72.665 -43.376 C -72.618 -43.508 -72.567 -43.638 -72.514 -43.768 C -72.46 -43.897 -72.403 -44.024 -72.344 -44.151 C -72.284 -44.278 -72.221 -44.403 -72.155 -44.526 C -72.089 -44.649 -72.021 -44.771 -71.948 -44.891 C -71.876 -45.011 -71.802 -45.129 -71.724 -45.246 C -71.646 -45.362 -71.566 -45.477 -71.482 -45.589 C -71.399 -45.702 -71.313 -45.812 -71.225 -45.92 C -71.136 -46.028 -71.044 -46.134 -70.951 -46.238 C -70.857 -46.342 -70.76 -46.443 -70.662 -46.542 C -70.563 -46.641 -70.461 -46.737 -70.358 -46.832 C -70.254 -46.925 -70.148 -47.017 -70.04 -47.106 C -69.932 -47.195 -69.822 -47.281 -69.709 -47.364 C -69.597 -47.448 -69.483 -47.528 -69.367 -47.606 C -69.25 -47.684 -69.132 -47.759 -69.012 -47.831 C -68.892 -47.903 -68.771 -47.972 -68.647 -48.038 C -68.524 -48.104 -68.399 -48.167 -68.272 -48.227 C -68.146 -48.287 -68.018 -48.344 -67.889 -48.397 C -67.76 -48.451 -67.629 -48.501 -67.498 -48.548 C -67.366 -48.596 -67.233 -48.64 -67.099 -48.681 C -66.965 -48.721 -66.831 -48.759 -66.695 -48.793 C -66.56 -48.827 -66.423 -48.858 -66.286 -48.885 C -66.148 -48.913 -66.011 -48.937 -65.872 -48.958 C -65.734 -48.978 -65.595 -48.995 -65.456 -49.009 C -65.316 -49.023 -65.177 -49.033 -65.038 -49.041 C -64.897 -49.047 -64.758 -49.051 -64.618 -49.051 L -53.185 -49.051 L -50.931 -56.945 C -50.909 -57.021 -50.884 -57.095 -50.855 -57.168 C -50.827 -57.241 -50.794 -57.313 -50.758 -57.382 C -50.723 -57.452 -50.683 -57.521 -50.641 -57.586 C -50.598 -57.652 -50.553 -57.716 -50.504 -57.778 C -50.455 -57.839 -50.403 -57.898 -50.349 -57.955 C -50.294 -58.011 -50.237 -58.065 -50.177 -58.116 C -50.117 -58.167 -50.055 -58.214 -49.99 -58.259 C -49.926 -58.304 -49.859 -58.346 -49.791 -58.384 C -49.722 -58.422 -49.652 -58.457 -49.58 -58.488 C -49.507 -58.519 -49.434 -58.547 -49.359 -58.571 C -49.285 -58.595 -49.209 -58.615 -49.132 -58.632 C -49.055 -58.649 -48.978 -58.662 -48.9 -58.67 C -48.822 -58.68 -48.744 -58.685 -48.665 -58.686 C -48.586 -58.688 -48.508 -58.685 -48.43 -58.679 C -48.352 -58.672 -48.273 -58.662 -48.196 -58.648 C -48.119 -58.634 -48.042 -58.616 -47.967 -58.595 C -47.892 -58.573 -47.817 -58.548 -47.744 -58.519 C -47.671 -58.49 -47.6 -58.458 -47.53 -58.422 C -47.46 -58.386 -47.392 -58.347 -47.326 -58.305 C -47.26 -58.262 -47.196 -58.216 -47.134 -58.168 C -47.073 -58.119 -47.014 -58.067 -46.957 -58.013 C -46.901 -57.958 -46.847 -57.901 -46.796 -57.841 C -46.745 -57.781 -46.698 -57.719 -46.653 -57.654 C -46.608 -57.59 -46.566 -57.523 -46.528 -57.455 C -46.49 -57.386 -46.456 -57.315 -46.424 -57.244 C -46.393 -57.171 -46.365 -57.098 -46.341 -57.023 C -46.317 -56.949 -46.296 -56.873 -46.28 -56.796 C -46.263 -56.719 -46.25 -56.642 -46.241 -56.564 C -46.232 -56.486 -46.227 -56.407 -46.226 -56.329 C -46.225 -56.25 -46.227 -56.172 -46.233 -56.094 C -46.24 -56.015 -46.25 -55.938 -46.264 -55.86 C -46.278 -55.783 -46.296 -55.707 -46.317 -55.631 L -49.07 -46.04 C -49.105 -45.916 -49.151 -45.795 -49.206 -45.678 C -49.261 -45.561 -49.326 -45.45 -49.398 -45.343 C -49.472 -45.237 -49.553 -45.137 -49.643 -45.043 C -49.731 -44.95 -49.828 -44.865 -49.931 -44.787 C -50.034 -44.709 -50.143 -44.64 -50.257 -44.58 C -50.372 -44.52 -50.49 -44.469 -50.612 -44.428 C -50.735 -44.387 -50.859 -44.356 -50.987 -44.335 C -51.115 -44.314 -51.243 -44.304 -51.372 -44.303 L -64.608 -44.303 C -64.731 -44.303 -64.854 -44.297 -64.976 -44.284 C -65.099 -44.272 -65.22 -44.254 -65.34 -44.229 C -65.461 -44.205 -65.58 -44.175 -65.698 -44.139 C -65.815 -44.104 -65.931 -44.062 -66.044 -44.015 C -66.158 -43.967 -66.269 -43.915 -66.377 -43.856 C -66.485 -43.798 -66.59 -43.735 -66.692 -43.667 C -66.795 -43.598 -66.893 -43.524 -66.988 -43.446 C -67.083 -43.368 -67.174 -43.286 -67.261 -43.199 C -67.348 -43.112 -67.43 -43.021 -67.508 -42.925 C -67.586 -42.831 -67.659 -42.732 -67.727 -42.629 C -67.795 -42.527 -67.858 -42.422 -67.916 -42.313 C -67.974 -42.205 -68.026 -42.094 -68.073 -41.98 C -68.12 -41.867 -68.162 -41.751 -68.197 -41.633 C -68.233 -41.516 -68.263 -41.396 -68.287 -41.276 C -68.311 -41.155 -68.329 -41.034 -68.34 -40.912 C -68.353 -40.789 -68.358 -40.667 -68.358 -40.543 L -68.358 -27.509 C -68.359 -27.384 -68.369 -27.259 -68.388 -27.136 C -68.408 -27.013 -68.437 -26.891 -68.475 -26.772 C -68.514 -26.653 -68.561 -26.538 -68.618 -26.427 C -68.674 -26.315 -68.739 -26.209 -68.812 -26.107 C -68.885 -26.006 -68.966 -25.911 -69.054 -25.822 C -69.142 -25.733 -69.236 -25.652 -69.337 -25.578 C -69.438 -25.504 -69.543 -25.438 -69.654 -25.381 C -69.765 -25.323 -69.88 -25.275 -69.999 -25.235 L -75.313 -23.48 C -75.393 -23.46 -75.464 -23.424 -75.529 -23.373 C -75.593 -23.321 -75.645 -23.258 -75.682 -23.185 C -75.72 -23.112 -75.74 -23.034 -75.745 -22.952 C -75.749 -22.869 -75.736 -22.79 -75.706 -22.713 L -70.056 -10.033 C -69.512 -8.817 -69.1 -7.558 -68.822 -6.255 C -68.544 -4.952 -68.406 -3.634 -68.407 -2.302 C -68.408 -1.258 -68.358 -0.217 -68.257 0.822 C -68.157 1.862 -68.005 2.893 -67.802 3.917 C -67.6 4.941 -67.348 5.953 -67.045 6.953 C -66.743 7.952 -66.393 8.934 -65.994 9.899 C -65.595 10.864 -65.15 11.807 -64.658 12.728 C -64.167 13.648 -63.631 14.543 -63.051 15.412 C -62.472 16.28 -61.851 17.117 -61.188 17.924 C -60.526 18.731 -59.826 19.504 -59.088 20.243 C -58.35 20.981 -57.577 21.681 -56.77 22.343 C -55.963 23.005 -55.125 23.626 -54.257 24.206 C -53.389 24.786 -52.494 25.321 -51.573 25.812 C -50.652 26.304 -49.709 26.75 -48.745 27.148 C -47.78 27.547 -46.797 27.897 -45.798 28.2 C -44.799 28.502 -43.787 28.754 -42.763 28.957 C -41.739 29.159 -40.707 29.311 -39.668 29.412 C -38.629 29.513 -37.588 29.562 -36.544 29.561 L -36.447 29.561 C -36.062 29.56 -35.675 29.552 -35.288 29.537 C -34.902 29.521 -34.517 29.5 -34.131 29.47 C -33.746 29.441 -33.361 29.405 -32.977 29.362 C -32.593 29.319 -32.21 29.269 -31.827 29.211 C -31.445 29.154 -31.063 29.09 -30.684 29.019 C -30.304 28.948 -29.926 28.87 -29.549 28.786 C -29.171 28.701 -28.796 28.609 -28.422 28.51 C -28.049 28.412 -27.677 28.307 -27.307 28.194 C -26.937 28.083 -26.569 27.963 -26.203 27.838 C -25.838 27.712 -25.475 27.581 -25.114 27.442 C -24.753 27.303 -24.395 27.158 -24.039 27.006 C -23.684 26.854 -23.331 26.696 -22.981 26.531 C -22.632 26.367 -22.285 26.196 -21.942 26.019 C -21.599 25.841 -21.259 25.658 -20.922 25.468 C -20.585 25.278 -20.252 25.083 -19.922 24.881 C -19.593 24.679 -19.267 24.471 -18.944 24.257 C -18.622 24.044 -18.305 23.824 -17.99 23.599 C -17.676 23.374 -17.366 23.143 -17.061 22.906 C -16.755 22.669 -16.454 22.428 -16.157 22.18 C -15.86 21.932 -15.568 21.679 -15.28 21.421 C -14.993 21.163 -14.71 20.899 -14.432 20.631 C -14.154 20.362 -13.881 20.089 -13.613 19.811 C -13.345 19.532 -13.082 19.249 -12.824 18.96 C -12.566 18.672 -12.314 18.38 -12.067 18.083 C -11.82 17.785 -11.579 17.483 -11.343 17.178 C -11.106 16.872 -10.876 16.561 -10.651 16.247 C -10.427 15.932 -10.208 15.614 -9.995 15.292 C -9.781 14.969 -9.574 14.643 -9.373 14.313 C -9.172 13.982 -8.977 13.649 -8.788 13.312 C -8.599 12.975 -8.416 12.634 -8.239 12.291 C -8.063 11.947 -7.893 11.6 -7.729 11.25 C -7.564 10.9 -7.407 10.547 -7.256 10.191 C -7.104 9.835 -6.96 9.477 -6.822 9.116 C -6.684 8.755 -6.553 8.392 -6.428 8.026 C -6.303 7.66 -6.185 7.292 -6.073 6.922 C -5.962 6.552 -5.857 6.18 -5.76 5.806 C -5.662 5.432 -5.57 5.056 -5.486 4.679 C -5.402 4.302 -5.325 3.923 -5.255 3.543 C -5.185 3.163 -5.121 2.782 -5.064 2.399 C -5.009 2.017 -4.959 1.634 -4.916 1.25 C -4.874 0.865 -4.839 0.48 -4.811 0.095 C -4.781 -0.291 -4.761 -0.676 -4.746 -1.062 C -4.731 -1.449 -4.725 -1.835 -4.724 -2.222 C -4.724 -2.608 -4.73 -2.995 -4.744 -3.381 C -4.758 -3.767 -4.779 -4.153 -4.807 -4.539 C -4.835 -4.924 -4.869 -5.309 -4.911 -5.693 C -4.953 -6.078 -5.002 -6.461 -5.059 -6.843 C -5.114 -7.226 -5.177 -7.607 -5.247 -7.987 C -5.316 -8.367 -5.394 -8.746 -5.477 -9.124 C -5.561 -9.501 -5.65 -9.876 -5.748 -10.25 C -5.846 -10.625 -5.949 -10.997 -6.061 -11.367 C -6.171 -11.737 -6.289 -12.105 -6.413 -12.472 C -6.537 -12.837 -6.668 -13.201 -6.806 -13.563 C -6.943 -13.924 -7.088 -14.282 -7.238 -14.638 C -7.389 -14.994 -7.546 -15.347 -7.709 -15.698 C -7.873 -16.048 -8.043 -16.395 -8.219 -16.739 C -8.395 -17.083 -8.577 -17.424 -8.766 -17.761 C -8.954 -18.099 -9.149 -18.433 -9.35 -18.763 C -9.551 -19.093 -9.757 -19.419 -9.97 -19.742 C -10.183 -20.065 -10.401 -20.384 -10.625 -20.699 C -10.85 -21.014 -11.079 -21.324 -11.314 -21.63 C -11.551 -21.937 -11.792 -22.239 -12.038 -22.537 C -12.285 -22.834 -12.537 -23.127 -12.794 -23.416 C -13.052 -23.704 -13.313 -23.988 -13.581 -24.267 C -13.727 -24.418 -13.85 -24.585 -13.951 -24.77 C -14.053 -24.953 -14.129 -25.147 -14.179 -25.351 C -14.229 -25.554 -14.253 -25.761 -14.249 -25.971 C -14.245 -26.18 -14.215 -26.386 -14.157 -26.588 L -8.92 -44.956 C -8.898 -45.031 -8.873 -45.105 -8.845 -45.179 C -8.815 -45.251 -8.783 -45.323 -8.747 -45.393 C -8.712 -45.463 -8.673 -45.531 -8.63 -45.597 C -8.587 -45.663 -8.542 -45.727 -8.493 -45.789 C -8.444 -45.85 -8.393 -45.909 -8.338 -45.965 C -8.283 -46.022 -8.226 -46.076 -8.166 -46.126 C -8.106 -46.177 -8.044 -46.225 -7.979 -46.27 C -7.915 -46.314 -7.849 -46.356 -7.779 -46.395 C -7.711 -46.433 -7.641 -46.467 -7.568 -46.499 C -7.497 -46.53 -7.423 -46.558 -7.349 -46.582 C -7.273 -46.605 -7.198 -46.626 -7.121 -46.643 C -7.044 -46.659 -6.967 -46.672 -6.889 -46.681 C -6.811 -46.69 -6.732 -46.695 -6.654 -46.697 C -6.575 -46.698 -6.497 -46.696 -6.419 -46.689 C -6.341 -46.683 -6.263 -46.673 -6.186 -46.659 C -6.108 -46.645 -6.031 -46.627 -5.956 -46.605 C -5.881 -46.584 -5.807 -46.559 -5.733 -46.53 C -5.66 -46.501 -5.589 -46.469 -5.519 -46.433 C -5.449 -46.397 -5.381 -46.358 -5.314 -46.315 C -5.249 -46.273 -5.185 -46.227 -5.123 -46.178 C -5.062 -46.129 -5.003 -46.078 -4.946 -46.023 C -4.89 -45.969 -4.836 -45.912 -4.785 -45.852 C -4.734 -45.792 -4.687 -45.729 -4.642 -45.665 C -4.597 -45.601 -4.556 -45.534 -4.518 -45.465 C -4.479 -45.396 -4.444 -45.326 -4.413 -45.254 C -4.382 -45.182 -4.354 -45.109 -4.33 -45.034 C -4.306 -44.959 -4.286 -44.883 -4.27 -44.807 C -4.253 -44.73 -4.239 -44.652 -4.23 -44.574 C -4.222 -44.496 -4.217 -44.418 -4.215 -44.339 C -4.214 -44.261 -4.216 -44.183 -4.223 -44.104 C -4.229 -44.026 -4.239 -43.948 -4.253 -43.871 C -4.268 -43.793 -4.285 -43.717 -4.307 -43.642 L -9.169 -26.549 C -8.769 -26.102 -8.379 -25.645 -8.001 -25.177 C -7.622 -24.71 -7.256 -24.234 -6.901 -23.749 C -6.547 -23.263 -6.205 -22.77 -5.875 -22.267 C -5.545 -21.765 -5.228 -21.254 -4.923 -20.736 C -4.618 -20.218 -4.327 -19.693 -4.049 -19.16 C -3.771 -18.627 -3.505 -18.088 -3.254 -17.542 C -3.002 -16.997 -2.764 -16.445 -2.54 -15.888 C -2.315 -15.33 -2.105 -14.767 -1.909 -14.199 C -1.713 -13.631 -1.531 -13.058 -1.363 -12.481 C -1.195 -11.904 -1.042 -11.323 -0.903 -10.738 C -0.765 -10.153 -0.641 -9.565 -0.53 -8.975 C -0.421 -8.384 -0.326 -7.791 -0.246 -7.195 C -0.166 -6.599 -0.101 -6.002 -0.051 -5.403 C 0 -4.804 0.035 -4.204 0.056 -3.604 C 0.076 -3.003 0.082 -2.402 0.073 -1.801 C 0.063 -1.2 0.039 -0.6 0 0" style="fill-opacity: 1; fill: rgb(255, 255, 255);"/>
    </g>
  </g>
  <g style="clip-path: url(#clippath1);" transform="matrix(-1, 0, 0, -1, 537.4682319601839, 754.1463237448424)">
    <g transform="translate(303.8531 554.9665)">
      <path d="M 0 0 C 0.078 0 0.156 0.004 0.234 0.012 C 0.312 0.02 0.391 0.031 0.468 0.046 C 0.545 0.062 0.621 0.081 0.696 0.104 C 0.771 0.126 0.845 0.153 0.917 0.183 C 0.99 0.213 1.061 0.246 1.13 0.283 C 1.199 0.32 1.267 0.361 1.332 0.404 C 1.397 0.448 1.46 0.495 1.521 0.544 C 1.582 0.594 1.64 0.647 1.695 0.703 C 1.751 0.758 1.804 0.816 1.854 0.877 C 1.903 0.937 1.95 1 1.993 1.066 C 2.037 1.131 2.077 1.198 2.114 1.268 C 2.151 1.337 2.186 1.408 2.215 1.48 C 2.245 1.553 2.271 1.627 2.294 1.702 C 2.317 1.777 2.336 1.853 2.352 1.93 C 2.367 2.007 2.379 2.085 2.386 2.163 C 2.394 2.241 2.397 2.319 2.397 2.398 L 2.397 18.953 C 2.626 19.024 2.851 19.105 3.071 19.196 C 3.293 19.287 3.51 19.388 3.722 19.498 C 3.934 19.608 4.141 19.727 4.342 19.856 C 4.544 19.984 4.739 20.122 4.929 20.268 C 5.118 20.414 5.301 20.567 5.476 20.729 C 5.651 20.892 5.82 21.062 5.98 21.238 C 6.142 21.416 6.294 21.6 6.437 21.79 C 6.582 21.98 6.718 22.177 6.845 22.38 C 6.972 22.583 7.089 22.791 7.197 23.003 C 7.306 23.217 7.404 23.434 7.493 23.656 C 7.583 23.878 7.662 24.103 7.73 24.332 C 7.8 24.561 7.858 24.792 7.907 25.026 C 7.955 25.261 7.993 25.497 8.021 25.734 C 8.049 25.971 8.065 26.209 8.072 26.449 C 8.078 26.687 8.074 26.926 8.06 27.165 C 8.045 27.403 8.02 27.641 7.983 27.877 C 7.947 28.114 7.901 28.348 7.845 28.58 C 7.788 28.812 7.721 29.042 7.644 29.268 C 7.566 29.495 7.479 29.717 7.383 29.936 C 7.286 30.154 7.18 30.368 7.063 30.577 C 6.948 30.786 6.823 30.99 6.689 31.188 C 6.555 31.386 6.413 31.578 6.262 31.763 C 6.11 31.949 5.952 32.127 5.785 32.298 C 5.618 32.47 5.444 32.633 5.263 32.789 C 5.082 32.945 4.894 33.092 4.699 33.231 C 4.505 33.371 4.305 33.501 4.099 33.623 C 3.893 33.744 3.682 33.856 3.466 33.958 C 3.25 34.061 3.03 34.154 2.806 34.237 C 2.582 34.32 2.354 34.393 2.124 34.456 C 1.894 34.519 1.66 34.572 1.425 34.614 C 1.189 34.656 0.953 34.688 0.715 34.709 C 0.477 34.73 0.238 34.741 -0.001 34.741 C -0.24 34.741 -0.479 34.73 -0.717 34.708 C -0.955 34.688 -1.191 34.656 -1.427 34.613 C -1.662 34.571 -1.896 34.519 -2.126 34.456 C -2.356 34.393 -2.584 34.32 -2.808 34.236 C -3.032 34.153 -3.252 34.061 -3.468 33.958 C -3.684 33.855 -3.895 33.743 -4.101 33.622 C -4.307 33.5 -4.507 33.37 -4.701 33.231 C -4.896 33.092 -5.083 32.944 -5.265 32.788 C -5.446 32.632 -5.62 32.469 -5.787 32.297 C -5.953 32.126 -6.112 31.948 -6.263 31.762 C -6.414 31.577 -6.556 31.385 -6.69 31.187 C -6.824 30.989 -6.949 30.786 -7.065 30.577 C -7.181 30.367 -7.287 30.153 -7.384 29.935 C -7.48 29.716 -7.567 29.494 -7.645 29.268 C -7.721 29.041 -7.788 28.812 -7.845 28.58 C -7.902 28.348 -7.948 28.113 -7.984 27.877 C -8.02 27.641 -8.045 27.403 -8.06 27.165 C -8.075 26.926 -8.079 26.687 -8.072 26.448 C -8.066 26.209 -8.049 25.971 -8.021 25.733 C -7.994 25.496 -7.956 25.26 -7.907 25.026 C -7.859 24.792 -7.8 24.561 -7.731 24.332 C -7.662 24.103 -7.583 23.877 -7.494 23.656 C -7.405 23.434 -7.306 23.216 -7.198 23.003 C -7.089 22.79 -6.972 22.583 -6.845 22.38 C -6.718 22.177 -6.583 21.98 -6.438 21.79 C -6.294 21.599 -6.142 21.416 -5.981 21.238 C -5.82 21.062 -5.652 20.892 -5.477 20.729 C -5.301 20.567 -5.118 20.414 -4.929 20.268 C -4.739 20.122 -4.544 19.984 -4.343 19.856 C -4.141 19.727 -3.934 19.608 -3.722 19.498 C -3.51 19.388 -3.293 19.287 -3.072 19.196 C -2.851 19.105 -2.626 19.024 -2.398 18.953 L -2.398 2.398 C -2.398 2.319 -2.395 2.241 -2.387 2.163 C -2.379 2.085 -2.367 2.007 -2.352 1.93 C -2.337 1.853 -2.317 1.777 -2.295 1.702 C -2.272 1.627 -2.246 1.553 -2.216 1.48 C -2.186 1.408 -2.152 1.337 -2.115 1.268 C -2.078 1.198 -2.038 1.131 -1.994 1.066 C -1.95 1 -1.903 0.937 -1.854 0.877 C -1.804 0.816 -1.751 0.758 -1.695 0.703 C -1.641 0.647 -1.582 0.594 -1.521 0.544 C -1.461 0.495 -1.397 0.448 -1.332 0.404 C -1.268 0.361 -1.2 0.32 -1.131 0.283 C -1.062 0.246 -0.99 0.213 -0.918 0.183 C -0.846 0.153 -0.771 0.126 -0.696 0.104 C -0.621 0.081 -0.545 0.062 -0.468 0.046 C -0.391 0.031 -0.313 0.02 -0.235 0.012 C -0.157 0.004 -0.079 0 0 0 M -2.321 28.976 C -2.169 29.129 -2.004 29.265 -1.824 29.385 C -1.646 29.505 -1.456 29.606 -1.257 29.688 C -1.058 29.771 -0.853 29.833 -0.641 29.874 C -0.43 29.916 -0.216 29.936 0 29.936 C 0.107 29.935 0.215 29.93 0.321 29.919 C 0.429 29.909 0.534 29.893 0.64 29.872 C 0.745 29.852 0.85 29.825 0.952 29.794 C 1.055 29.763 1.156 29.727 1.255 29.686 C 1.354 29.645 1.451 29.599 1.546 29.548 C 1.641 29.498 1.732 29.442 1.822 29.382 C 1.911 29.323 1.998 29.259 2.081 29.191 C 2.164 29.123 2.243 29.05 2.319 28.975 C 2.396 28.898 2.468 28.819 2.535 28.736 C 2.604 28.653 2.668 28.567 2.728 28.478 C 2.787 28.388 2.842 28.296 2.893 28.201 C 2.943 28.106 2.989 28.01 3.03 27.91 C 3.071 27.811 3.107 27.71 3.139 27.607 C 3.17 27.504 3.196 27.4 3.217 27.295 C 3.238 27.189 3.254 27.083 3.265 26.977 C 3.274 26.87 3.28 26.762 3.28 26.655 C 3.28 26.547 3.274 26.44 3.265 26.333 C 3.254 26.227 3.238 26.121 3.217 26.015 C 3.196 25.91 3.17 25.806 3.139 25.703 C 3.107 25.6 3.071 25.499 3.03 25.4 C 2.989 25.3 2.943 25.204 2.893 25.109 C 2.842 25.014 2.787 24.922 2.728 24.833 C 2.668 24.743 2.604 24.657 2.535 24.574 C 2.468 24.491 2.396 24.412 2.319 24.335 C 2.243 24.26 2.164 24.187 2.081 24.119 C 1.998 24.051 1.911 23.987 1.822 23.928 C 1.732 23.868 1.641 23.812 1.546 23.762 C 1.451 23.711 1.354 23.666 1.255 23.625 C 1.156 23.583 1.055 23.547 0.952 23.516 C 0.85 23.485 0.745 23.458 0.64 23.438 C 0.534 23.417 0.429 23.401 0.321 23.391 C 0.215 23.38 0.107 23.375 0 23.375 C -0.161 23.375 -0.321 23.387 -0.48 23.411 C -0.64 23.435 -0.796 23.47 -0.95 23.517 C -1.104 23.564 -1.254 23.622 -1.399 23.691 C -1.545 23.76 -1.685 23.839 -1.818 23.929 C -1.952 24.018 -2.078 24.117 -2.197 24.225 C -2.316 24.333 -2.428 24.449 -2.529 24.574 C -2.632 24.698 -2.724 24.83 -2.807 24.967 C -2.89 25.105 -2.962 25.249 -3.023 25.397 C -3.085 25.546 -3.136 25.698 -3.175 25.854 C -3.214 26.011 -3.242 26.168 -3.258 26.329 C -3.274 26.489 -3.278 26.649 -3.271 26.81 C -3.263 26.971 -3.243 27.13 -3.213 27.288 C -3.182 27.446 -3.139 27.601 -3.085 27.752 C -3.031 27.904 -2.967 28.051 -2.891 28.193 C -2.815 28.335 -2.73 28.471 -2.635 28.601 C -2.539 28.73 -2.435 28.853 -2.321 28.967 Z M -5.688 -18.31 C -5.609 -18.31 -5.531 -18.306 -5.453 -18.298 C -5.375 -18.291 -5.297 -18.279 -5.22 -18.264 C -5.144 -18.249 -5.067 -18.229 -4.992 -18.207 C -4.917 -18.184 -4.843 -18.158 -4.771 -18.127 C -4.698 -18.098 -4.627 -18.064 -4.558 -18.027 C -4.488 -17.99 -4.421 -17.95 -4.355 -17.906 C -4.29 -17.862 -4.228 -17.815 -4.167 -17.766 C -4.106 -17.716 -4.048 -17.663 -3.992 -17.608 C -3.937 -17.552 -3.884 -17.494 -3.834 -17.434 C -3.784 -17.373 -3.738 -17.31 -3.694 -17.244 C -3.65 -17.179 -3.61 -17.112 -3.573 -17.042 C -3.536 -16.973 -3.503 -16.902 -3.473 -16.83 C -3.442 -16.757 -3.416 -16.684 -3.394 -16.608 C -3.37 -16.533 -3.352 -16.457 -3.336 -16.38 C -3.321 -16.303 -3.31 -16.226 -3.302 -16.147 C -3.294 -16.069 -3.29 -15.991 -3.29 -15.912 L -3.29 -5.371 C -3.288 -5.157 -3.314 -4.946 -3.369 -4.739 C -3.423 -4.532 -3.504 -4.335 -3.611 -4.15 C -3.719 -3.964 -3.848 -3.796 -4 -3.645 C -4.152 -3.495 -4.321 -3.366 -4.508 -3.261 L -14.004 2.091 L -14.004 5.535 C -13.775 5.605 -13.551 5.687 -13.33 5.777 C -13.109 5.868 -12.892 5.969 -12.68 6.079 C -12.468 6.189 -12.261 6.309 -12.06 6.437 C -11.858 6.566 -11.663 6.703 -11.473 6.849 C -11.284 6.995 -11.101 7.149 -10.925 7.311 C -10.75 7.473 -10.582 7.643 -10.421 7.82 C -10.26 7.997 -10.108 8.181 -9.963 8.372 C -9.819 8.562 -9.684 8.759 -9.557 8.961 C -9.43 9.164 -9.313 9.372 -9.204 9.585 C -9.096 9.798 -8.997 10.016 -8.908 10.237 C -8.819 10.459 -8.74 10.685 -8.671 10.914 C -8.602 11.143 -8.543 11.374 -8.495 11.608 C -8.446 11.842 -8.408 12.078 -8.38 12.315 C -8.353 12.553 -8.336 12.791 -8.33 13.03 C -8.323 13.269 -8.327 13.508 -8.342 13.746 C -8.357 13.985 -8.382 14.223 -8.418 14.459 C -8.454 14.695 -8.5 14.93 -8.557 15.162 C -8.614 15.394 -8.681 15.624 -8.758 15.85 C -8.835 16.076 -8.922 16.298 -9.019 16.517 C -9.116 16.736 -9.222 16.95 -9.338 17.159 C -9.454 17.368 -9.579 17.571 -9.712 17.77 C -9.846 17.968 -9.989 18.159 -10.14 18.345 C -10.291 18.53 -10.45 18.708 -10.616 18.88 C -10.783 19.051 -10.957 19.215 -11.139 19.371 C -11.32 19.526 -11.508 19.674 -11.702 19.813 C -11.896 19.952 -12.097 20.083 -12.303 20.204 C -12.509 20.325 -12.72 20.437 -12.936 20.54 C -13.151 20.643 -13.372 20.735 -13.596 20.818 C -13.82 20.902 -14.047 20.975 -14.278 21.038 C -14.508 21.101 -14.741 21.153 -14.977 21.195 C -15.212 21.237 -15.449 21.269 -15.687 21.291 C -15.925 21.312 -16.164 21.322 -16.403 21.322 C -16.642 21.322 -16.88 21.312 -17.118 21.29 C -17.356 21.269 -17.593 21.237 -17.829 21.195 C -18.064 21.153 -18.297 21.1 -18.527 21.037 C -18.758 20.974 -18.985 20.901 -19.209 20.818 C -19.434 20.735 -19.654 20.642 -19.87 20.539 C -20.085 20.437 -20.296 20.325 -20.502 20.203 C -20.708 20.082 -20.908 19.952 -21.103 19.812 C -21.297 19.673 -21.485 19.525 -21.666 19.37 C -21.847 19.214 -22.021 19.05 -22.188 18.879 C -22.355 18.708 -22.514 18.529 -22.665 18.344 C -22.815 18.159 -22.958 17.967 -23.092 17.769 C -23.226 17.571 -23.351 17.367 -23.466 17.158 C -23.582 16.949 -23.688 16.735 -23.785 16.516 C -23.882 16.298 -23.969 16.075 -24.046 15.849 C -24.123 15.623 -24.19 15.394 -24.247 15.161 C -24.303 14.929 -24.35 14.695 -24.385 14.458 C -24.421 14.222 -24.447 13.984 -24.461 13.746 C -24.476 13.507 -24.48 13.269 -24.474 13.029 C -24.468 12.791 -24.451 12.552 -24.423 12.315 C -24.396 12.078 -24.357 11.842 -24.309 11.607 C -24.26 11.374 -24.202 11.142 -24.133 10.913 C -24.063 10.684 -23.984 10.459 -23.896 10.237 C -23.806 10.015 -23.708 9.798 -23.599 9.584 C -23.491 9.372 -23.373 9.164 -23.247 8.961 C -23.12 8.758 -22.984 8.562 -22.84 8.371 C -22.695 8.181 -22.543 7.997 -22.382 7.82 C -22.222 7.643 -22.054 7.473 -21.878 7.311 C -21.702 7.149 -21.52 6.995 -21.331 6.849 C -21.141 6.703 -20.945 6.566 -20.744 6.437 C -20.542 6.309 -20.335 6.189 -20.124 6.079 C -19.911 5.969 -19.695 5.868 -19.474 5.777 C -19.252 5.687 -19.028 5.605 -18.8 5.535 L -18.8 0.739 C -18.8 0.526 -18.772 0.317 -18.717 0.112 C -18.662 -0.093 -18.581 -0.288 -18.474 -0.472 C -18.367 -0.655 -18.237 -0.822 -18.086 -0.971 C -17.935 -1.121 -17.767 -1.248 -17.582 -1.352 L -8.086 -6.704 L -8.086 -15.922 C -8.085 -16 -8.082 -16.078 -8.073 -16.156 C -8.065 -16.234 -8.054 -16.312 -8.038 -16.388 C -8.022 -16.465 -8.003 -16.541 -7.98 -16.616 C -7.958 -16.69 -7.931 -16.764 -7.9 -16.836 C -7.871 -16.909 -7.837 -16.979 -7.8 -17.048 C -7.763 -17.117 -7.722 -17.184 -7.678 -17.25 C -7.635 -17.314 -7.588 -17.377 -7.538 -17.437 C -7.488 -17.498 -7.436 -17.556 -7.38 -17.611 C -7.325 -17.667 -7.267 -17.719 -7.206 -17.769 C -7.146 -17.818 -7.083 -17.864 -7.017 -17.908 C -6.952 -17.951 -6.885 -17.992 -6.816 -18.028 C -6.747 -18.065 -6.676 -18.099 -6.604 -18.128 C -6.531 -18.158 -6.458 -18.185 -6.382 -18.208 C -6.308 -18.23 -6.231 -18.249 -6.155 -18.264 C -6.078 -18.279 -6 -18.291 -5.922 -18.298 C -5.844 -18.306 -5.766 -18.31 -5.688 -18.31 M -18.732 15.567 C -18.58 15.72 -18.415 15.856 -18.235 15.976 C -18.056 16.096 -17.867 16.197 -17.668 16.279 C -17.469 16.361 -17.263 16.423 -17.052 16.465 C -16.84 16.507 -16.627 16.527 -16.411 16.526 C -16.304 16.526 -16.197 16.521 -16.09 16.511 C -15.983 16.5 -15.877 16.484 -15.771 16.463 C -15.666 16.442 -15.562 16.417 -15.459 16.385 C -15.356 16.354 -15.255 16.318 -15.156 16.277 C -15.057 16.235 -14.96 16.189 -14.865 16.139 C -14.77 16.088 -14.678 16.033 -14.589 15.974 C -14.5 15.914 -14.414 15.85 -14.33 15.782 C -14.247 15.714 -14.168 15.642 -14.092 15.565 C -14.016 15.49 -13.944 15.41 -13.875 15.327 C -13.808 15.244 -13.744 15.158 -13.684 15.068 C -13.624 14.979 -13.569 14.887 -13.519 14.792 C -13.468 14.698 -13.422 14.601 -13.381 14.501 C -13.34 14.402 -13.303 14.301 -13.272 14.198 C -13.241 14.096 -13.215 13.991 -13.194 13.886 C -13.173 13.781 -13.157 13.674 -13.147 13.567 C -13.136 13.46 -13.131 13.354 -13.131 13.246 C -13.131 13.139 -13.136 13.031 -13.147 12.924 C -13.157 12.817 -13.173 12.711 -13.194 12.606 C -13.215 12.501 -13.241 12.396 -13.272 12.294 C -13.303 12.191 -13.34 12.09 -13.381 11.991 C -13.422 11.892 -13.468 11.794 -13.519 11.7 C -13.569 11.605 -13.624 11.513 -13.684 11.424 C -13.744 11.334 -13.808 11.248 -13.875 11.165 C -13.944 11.082 -14.016 11.002 -14.092 10.927 C -14.168 10.851 -14.247 10.778 -14.33 10.71 C -14.414 10.642 -14.5 10.578 -14.589 10.519 C -14.678 10.459 -14.77 10.404 -14.865 10.353 C -14.96 10.302 -15.057 10.257 -15.156 10.215 C -15.255 10.174 -15.356 10.138 -15.459 10.107 C -15.562 10.076 -15.666 10.05 -15.771 10.029 C -15.877 10.008 -15.983 9.992 -16.09 9.981 C -16.197 9.971 -16.304 9.966 -16.411 9.966 C -16.572 9.966 -16.732 9.978 -16.892 10.002 C -17.051 10.026 -17.207 10.061 -17.361 10.108 C -17.515 10.155 -17.665 10.213 -17.81 10.282 C -17.956 10.351 -18.095 10.43 -18.229 10.52 C -18.363 10.609 -18.489 10.708 -18.608 10.816 C -18.728 10.924 -18.838 11.041 -18.94 11.165 C -19.042 11.289 -19.135 11.42 -19.218 11.559 C -19.301 11.696 -19.373 11.84 -19.435 11.988 C -19.497 12.137 -19.547 12.29 -19.586 12.445 C -19.625 12.602 -19.653 12.76 -19.669 12.92 C -19.685 13.08 -19.689 13.241 -19.682 13.401 C -19.674 13.562 -19.655 13.721 -19.624 13.879 C -19.593 14.037 -19.55 14.192 -19.496 14.344 C -19.442 14.495 -19.378 14.642 -19.302 14.784 C -19.227 14.927 -19.141 15.063 -19.046 15.192 C -18.95 15.322 -18.846 15.443 -18.732 15.558 Z M 5.687 -18.31 C 5.766 -18.31 5.845 -18.306 5.923 -18.298 C 6.001 -18.291 6.078 -18.279 6.155 -18.264 C 6.232 -18.249 6.309 -18.229 6.384 -18.207 C 6.459 -18.184 6.532 -18.158 6.605 -18.127 C 6.678 -18.098 6.749 -18.064 6.818 -18.027 C 6.887 -17.99 6.954 -17.95 7.02 -17.906 C 7.085 -17.862 7.148 -17.815 7.209 -17.766 C 7.27 -17.716 7.327 -17.663 7.383 -17.608 C 7.438 -17.552 7.491 -17.494 7.541 -17.434 C 7.591 -17.373 7.638 -17.31 7.682 -17.244 C 7.725 -17.179 7.766 -17.112 7.803 -17.042 C 7.839 -16.973 7.873 -16.902 7.903 -16.83 C 7.933 -16.757 7.959 -16.684 7.982 -16.608 C 8.005 -16.533 8.024 -16.457 8.039 -16.38 C 8.055 -16.303 8.066 -16.226 8.074 -16.147 C 8.082 -16.069 8.085 -15.991 8.085 -15.912 L 8.085 -6.743 L 17.581 -1.391 C 17.767 -1.286 17.935 -1.159 18.086 -1.01 C 18.237 -0.86 18.366 -0.694 18.474 -0.51 C 18.58 -0.326 18.661 -0.132 18.717 0.073 C 18.771 0.279 18.8 0.488 18.799 0.7 L 18.799 5.496 C 19.027 5.567 19.252 5.648 19.474 5.739 C 19.694 5.83 19.911 5.931 20.123 6.041 C 20.335 6.151 20.542 6.271 20.743 6.399 C 20.945 6.527 21.141 6.665 21.33 6.811 C 21.52 6.957 21.702 7.111 21.878 7.273 C 22.054 7.435 22.222 7.604 22.382 7.782 C 22.543 7.958 22.695 8.143 22.84 8.333 C 22.983 8.524 23.119 8.72 23.246 8.923 C 23.373 9.125 23.49 9.333 23.599 9.546 C 23.707 9.76 23.806 9.977 23.896 10.199 C 23.984 10.421 24.063 10.646 24.132 10.875 C 24.201 11.104 24.26 11.335 24.309 11.569 C 24.357 11.804 24.396 12.04 24.423 12.277 C 24.45 12.514 24.467 12.752 24.474 12.992 C 24.479 13.23 24.476 13.469 24.461 13.708 C 24.446 13.947 24.421 14.184 24.385 14.42 C 24.349 14.657 24.303 14.891 24.246 15.124 C 24.189 15.355 24.122 15.585 24.045 15.811 C 23.968 16.038 23.881 16.26 23.784 16.479 C 23.687 16.697 23.581 16.911 23.465 17.12 C 23.35 17.33 23.225 17.533 23.091 17.731 C 22.957 17.929 22.814 18.121 22.663 18.306 C 22.513 18.492 22.354 18.67 22.187 18.841 C 22.02 19.013 21.846 19.176 21.664 19.332 C 21.483 19.488 21.295 19.635 21.101 19.775 C 20.906 19.914 20.706 20.044 20.5 20.166 C 20.294 20.287 20.083 20.399 19.867 20.501 C 19.651 20.604 19.432 20.697 19.207 20.78 C 18.983 20.863 18.756 20.936 18.525 20.999 C 18.295 21.062 18.062 21.115 17.826 21.157 C 17.591 21.199 17.354 21.231 17.116 21.252 C 16.878 21.273 16.64 21.284 16.4 21.284 C 16.161 21.283 15.923 21.272 15.686 21.25 C 15.447 21.229 15.211 21.196 14.976 21.153 C 14.741 21.111 14.509 21.058 14.278 20.994 C 14.048 20.931 13.82 20.857 13.597 20.774 C 13.373 20.69 13.153 20.597 12.938 20.494 C 12.723 20.391 12.512 20.279 12.307 20.157 C 12.101 20.035 11.901 19.905 11.707 19.765 C 11.514 19.626 11.326 19.478 11.146 19.322 C 10.964 19.166 10.791 19.002 10.624 18.831 C 10.458 18.659 10.3 18.481 10.149 18.295 C 9.999 18.11 9.856 17.918 9.724 17.72 C 9.59 17.522 9.466 17.318 9.35 17.109 C 9.234 16.9 9.129 16.686 9.032 16.468 C 8.936 16.249 8.85 16.027 8.772 15.8 C 8.696 15.574 8.63 15.345 8.573 15.113 C 8.517 14.881 8.471 14.646 8.436 14.411 C 8.399 14.174 8.375 13.937 8.36 13.699 C 8.346 13.46 8.342 13.222 8.349 12.983 C 8.355 12.744 8.372 12.506 8.4 12.269 C 8.428 12.032 8.466 11.796 8.515 11.562 C 8.563 11.328 8.622 11.097 8.691 10.869 C 8.761 10.64 8.84 10.415 8.929 10.193 C 9.019 9.972 9.117 9.754 9.226 9.542 C 9.334 9.329 9.451 9.121 9.578 8.918 C 9.705 8.716 9.841 8.52 9.985 8.33 C 10.129 8.139 10.281 7.956 10.442 7.779 C 10.603 7.602 10.771 7.433 10.946 7.271 C 11.122 7.109 11.305 6.955 11.494 6.809 C 11.683 6.664 11.878 6.526 12.08 6.398 C 12.281 6.27 12.488 6.15 12.7 6.04 C 12.912 5.93 13.128 5.83 13.349 5.739 C 13.57 5.648 13.795 5.567 14.022 5.496 L 14.022 2.063 L 4.508 -3.261 C 4.321 -3.366 4.152 -3.495 4 -3.645 C 3.848 -3.796 3.718 -3.964 3.61 -4.15 C 3.504 -4.335 3.423 -4.532 3.368 -4.739 C 3.313 -4.946 3.288 -5.157 3.29 -5.371 L 3.29 -15.922 C 3.29 -16 3.294 -16.078 3.302 -16.156 C 3.311 -16.234 3.322 -16.312 3.337 -16.388 C 3.353 -16.465 3.372 -16.541 3.396 -16.616 C 3.418 -16.69 3.444 -16.764 3.475 -16.836 C 3.505 -16.909 3.539 -16.979 3.576 -17.048 C 3.613 -17.117 3.653 -17.184 3.697 -17.25 C 3.741 -17.314 3.787 -17.377 3.837 -17.437 C 3.887 -17.498 3.939 -17.556 3.995 -17.611 C 4.051 -17.667 4.109 -17.719 4.17 -17.769 C 4.23 -17.818 4.293 -17.864 4.358 -17.908 C 4.424 -17.951 4.49 -17.992 4.56 -18.028 C 4.629 -18.065 4.7 -18.099 4.772 -18.128 C 4.845 -18.158 4.918 -18.185 4.993 -18.208 C 5.068 -18.23 5.145 -18.249 5.221 -18.264 C 5.298 -18.279 5.375 -18.291 5.453 -18.298 C 5.531 -18.306 5.609 -18.31 5.687 -18.31 M 14.08 15.567 C 14.232 15.72 14.397 15.856 14.577 15.976 C 14.756 16.096 14.945 16.197 15.145 16.279 C 15.344 16.361 15.549 16.423 15.761 16.465 C 15.973 16.507 16.186 16.527 16.401 16.526 C 16.509 16.526 16.616 16.521 16.723 16.511 C 16.83 16.5 16.936 16.484 17.041 16.463 C 17.146 16.442 17.251 16.417 17.354 16.385 C 17.456 16.354 17.558 16.318 17.656 16.277 C 17.756 16.235 17.853 16.189 17.947 16.139 C 18.042 16.088 18.135 16.033 18.224 15.974 C 18.313 15.914 18.399 15.85 18.482 15.782 C 18.565 15.714 18.645 15.642 18.721 15.565 C 18.797 15.49 18.869 15.41 18.937 15.327 C 19.005 15.244 19.069 15.158 19.129 15.068 C 19.188 14.979 19.243 14.887 19.294 14.792 C 19.345 14.698 19.391 14.601 19.432 14.501 C 19.473 14.402 19.509 14.301 19.54 14.198 C 19.571 14.096 19.598 13.991 19.618 13.886 C 19.64 13.781 19.655 13.674 19.666 13.567 C 19.677 13.46 19.682 13.354 19.682 13.246 C 19.682 13.139 19.677 13.031 19.666 12.924 C 19.655 12.817 19.64 12.711 19.618 12.606 C 19.598 12.501 19.571 12.396 19.54 12.294 C 19.509 12.191 19.473 12.09 19.432 11.991 C 19.391 11.892 19.345 11.794 19.294 11.7 C 19.243 11.605 19.188 11.513 19.129 11.424 C 19.069 11.334 19.005 11.248 18.937 11.165 C 18.869 11.082 18.797 11.002 18.721 10.927 C 18.645 10.851 18.565 10.778 18.482 10.71 C 18.399 10.642 18.313 10.578 18.224 10.519 C 18.135 10.459 18.042 10.404 17.947 10.353 C 17.853 10.302 17.756 10.257 17.656 10.215 C 17.558 10.174 17.456 10.138 17.354 10.107 C 17.251 10.076 17.146 10.05 17.041 10.029 C 16.936 10.008 16.83 9.992 16.723 9.981 C 16.616 9.971 16.509 9.966 16.401 9.966 C 16.24 9.966 16.08 9.978 15.921 10.002 C 15.762 10.026 15.605 10.062 15.451 10.108 C 15.298 10.155 15.147 10.213 15.002 10.282 C 14.856 10.351 14.718 10.43 14.584 10.52 C 14.45 10.609 14.323 10.708 14.204 10.816 C 14.085 10.924 13.975 11.041 13.872 11.165 C 13.77 11.289 13.678 11.42 13.595 11.559 C 13.512 11.696 13.439 11.84 13.378 11.988 C 13.316 12.137 13.266 12.29 13.227 12.445 C 13.188 12.602 13.159 12.76 13.144 12.92 C 13.128 13.08 13.123 13.241 13.131 13.401 C 13.139 13.562 13.158 13.721 13.189 13.879 C 13.22 14.037 13.263 14.192 13.316 14.344 C 13.37 14.495 13.435 14.642 13.511 14.784 C 13.586 14.927 13.671 15.063 13.767 15.192 C 13.862 15.322 13.967 15.443 14.08 15.558 Z" style="fill-opacity: 1; fill: rgb(255, 255, 255);"/>
    </g>
  </g>
</svg>