<svg width="103" height="102" viewBox="0 0 103 102" fill="none" xmlns="http://www.w3.org/2000/svg">
<path d="M37.5448 102L35.515 85.68C34.4154 85.2547 33.3802 84.7447 32.4092 84.15C31.435 83.5553 30.4826 82.9178 29.5522 82.2375L14.4552 88.6125L0.5 64.3875L13.5672 54.4425C13.4826 53.8475 13.4403 53.2729 13.4403 52.7187V49.2762C13.4403 48.7254 13.4826 48.1525 13.5672 47.5575L0.5 37.6125L14.4552 13.3875L29.5522 19.7625C30.4826 19.0825 31.4552 18.445 32.4702 17.85C33.4851 17.255 34.5 16.745 35.515 16.32L37.5448 0H65.4552L67.485 16.32C68.5846 16.745 69.6215 17.255 70.5958 17.85C71.5668 18.445 72.5174 19.0825 73.4478 19.7625L88.5449 13.3875L102.5 37.6125L89.4325 47.5575C89.5172 48.1525 89.56 48.7254 89.56 49.2762V52.7187C89.56 53.2729 89.4753 53.8475 89.3058 54.4425L102.373 64.3875L88.4182 88.6125L73.4478 82.2375C72.5174 82.9178 71.5448 83.5553 70.5298 84.15C69.5149 84.7447 68.5 85.2547 67.485 85.68L65.4552 102H37.5448ZM51.5 71.4C52.9378 71.4 54.1439 70.9104 55.1182 69.9312C56.0892 68.9554 56.5747 67.745 56.5747 66.3C56.5747 64.855 56.0892 63.6429 55.1182 62.6637C54.1439 61.6879 52.9378 61.2 51.5 61.2C50.0622 61.2 48.8578 61.6879 47.8869 62.6637C46.9126 63.6429 46.4254 64.855 46.4254 66.3C46.4254 67.745 46.9126 68.9554 47.8869 69.9312C48.8578 70.9104 50.0622 71.4 51.5 71.4ZM46.4254 56.1H56.5747V30.6H46.4254V56.1Z" fill="#FBFBFB"/>
</svg>
