<svg width="103" height="102" viewBox="0 0 103 102" fill="none" xmlns="http://www.w3.org/2000/svg">
<path d="M100.212 35.6023L66.8717 2.24871C65.4098 0.807745 63.44 0 61.3877 0C59.3355 0 57.3657 0.807745 55.9038 2.24871L43.7227 14.4346L15.5264 25.0185C14.257 25.4952 13.1355 26.2982 12.275 27.3465C11.4145 28.3949 10.8453 29.6516 10.6249 30.9901L0.530517 91.4825C0.457157 91.8921 0.516872 92.3133 0.700887 92.6859C0.884902 93.0585 1.18351 93.3621 1.55284 93.5521C1.92216 93.7429 2.34272 93.8096 2.75271 93.7429C3.16269 93.6755 3.5405 93.4797 3.83059 93.1819L30.5224 66.4312C29.117 64.0491 28.3794 61.3322 28.387 58.5662C28.387 55.4935 29.2978 52.4898 31.0042 49.9349C32.7107 47.3801 35.1361 45.3888 37.9738 44.2129C40.8115 43.037 43.934 42.7294 46.9464 43.3289C49.959 43.9283 52.7261 45.4079 54.898 47.5807C57.0699 49.7534 58.5489 52.5216 59.1481 55.5353C59.7474 58.549 59.4398 61.6727 58.2644 64.5115C57.089 67.3503 55.0985 69.7766 52.5447 71.4837C49.9908 73.1908 46.9882 74.102 43.9168 74.102C41.1519 74.1097 38.4359 73.3717 36.0548 71.9659L9.31453 98.6677C9.01725 98.9581 8.82081 99.3365 8.75419 99.7461C8.68754 100.157 8.75419 100.577 8.94428 100.947C9.13438 101.316 9.43791 101.615 9.8103 101.799C10.1827 101.983 10.6043 102.043 11.0131 101.97L71.482 91.9201C72.8201 91.6807 74.0733 91.0992 75.1195 90.2313C76.1657 89.3635 76.9691 88.239 77.4513 86.9673L88.0308 58.7604L100.212 46.5744C100.937 45.8566 101.512 45.0022 101.905 44.0605C102.298 43.1189 102.5 42.1086 102.5 41.0883C102.5 40.068 102.298 39.0578 101.905 38.1162C101.512 37.1745 100.937 36.3201 100.212 35.6023ZM84.6821 51.1381L51.3419 17.7845L61.3877 7.73481L94.7283 41.0883L84.6821 51.1381ZM43.9168 66.3341C42.381 66.3341 40.8797 65.8785 39.6029 65.025C38.3259 64.1714 37.3306 62.9583 36.743 61.5388C36.1553 60.1195 36.0015 58.5575 36.3011 57.0507C36.6007 55.5439 37.3403 54.1598 38.4262 53.0734C39.5121 51.9871 40.8957 51.2473 42.4019 50.9475C43.9082 50.6478 45.4694 50.8016 46.8883 51.3896C48.3071 51.9775 49.5198 52.9731 50.3731 54.2505C51.2262 55.528 51.6816 57.0298 51.6816 58.5662C51.6816 60.6263 50.8636 62.6022 49.4074 64.059C47.9511 65.5157 45.9761 66.3341 43.9168 66.3341Z" fill="#FBFBFB"/>
</svg>
