<svg width="81" height="94" viewBox="0 0 81 94" fill="none" xmlns="http://www.w3.org/2000/svg">
<g clip-path="url(#clip0_61_34)">
<mask id="mask0_61_34" style="mask-type:luminance" maskUnits="userSpaceOnUse" x="-254" y="-239" width="596" height="843">
<path d="M341.461 -238.103H-253.815V603.787H341.461V-238.103Z" fill="white"/>
</mask>
<g mask="url(#mask0_61_34)">
<path d="M0.077034 34.356C0.113034 33.783 0.162037 33.21 0.225037 32.639C0.288037 32.068 0.364033 31.499 0.454033 30.932C0.544033 30.364 0.646031 29.799 0.763031 29.236C0.879031 28.673 1.00803 28.114 1.15003 27.558C1.29303 27.001 1.44803 26.448 1.61703 25.898C1.78603 25.349 1.96703 24.804 2.16103 24.264C2.35503 23.723 2.56204 23.187 2.78104 22.656C3.00104 22.125 3.23204 21.6 3.47604 21.079C3.72104 20.559 3.97603 20.045 4.24503 19.537C4.51403 19.029 4.79304 18.527 5.08504 18.033C5.37704 17.538 5.68103 17.05 5.99503 16.569C6.30903 16.089 6.63604 15.616 6.97304 15.15C7.30904 14.685 7.65704 14.228 8.01504 13.779C8.37404 13.33 8.74303 12.89 9.12303 12.458C9.50203 12.026 9.89003 11.604 10.29 11.191C10.689 10.777 11.098 10.374 11.515 9.98002C11.933 9.58502 12.361 9.20202 12.797 8.82802C13.233 8.45402 13.678 8.09001 14.131 7.73701C14.584 7.38401 15.046 7.04201 15.515 6.71001C15.984 6.37901 16.461 6.05902 16.945 5.75002C17.43 5.44102 17.921 5.14302 18.42 4.85702C18.918 4.57202 19.423 4.29702 19.934 4.03602C20.445 3.77302 20.963 3.52302 21.485 3.28602C22.009 3.04802 22.537 2.82202 23.07 2.60902C23.604 2.39702 24.142 2.19602 24.685 2.00902C25.228 1.82102 25.775 1.64602 26.327 1.48402C26.878 1.32202 27.432 1.17302 27.991 1.03802C28.55 0.902017 29.11 0.779013 29.675 0.670013C30.238 0.561013 30.805 0.46402 31.373 0.38102C31.942 0.29902 32.512 0.230019 33.084 0.173019C33.655 0.117019 34.228 0.0750129 34.803 0.0460129C35.376 0.0170129 35.95 0.00201526 36.524 1.52588e-05H36.63C37.229 1.52588e-05 37.828 0.014014 38.427 0.044014C39.024 0.073014 39.622 0.118018 40.218 0.176018C40.814 0.235018 41.408 0.309018 42.001 0.397018C42.594 0.485018 43.183 0.587017 43.771 0.705017C44.359 0.821017 44.943 0.953014 45.524 1.09901C46.105 1.24401 46.682 1.40402 47.256 1.57802C47.829 1.75202 48.397 1.94001 48.961 2.14201C49.525 2.34401 50.084 2.56002 50.638 2.78902C51.191 3.01802 51.739 3.26101 52.28 3.51701C52.822 3.77301 53.356 4.04301 53.885 4.32501C54.413 4.60801 54.934 4.90301 55.448 5.21101C55.961 5.51901 56.467 5.84001 56.965 6.17301C57.463 6.50501 57.953 6.85102 58.434 7.20802C58.915 7.56402 59.388 7.93302 59.85 8.31302C60.313 8.69302 60.767 9.08501 61.211 9.48701C61.655 9.88901 62.088 10.302 62.512 10.726C62.935 11.149 63.348 11.583 63.75 12.027C64.153 12.471 64.544 12.925 64.924 13.388C65.304 13.851 65.672 14.323 66.029 14.804C66.386 15.286 66.73 15.775 67.063 16.273C67.396 16.772 67.717 17.277 68.024 17.791C68.332 18.305 68.627 18.826 68.91 19.355C69.192 19.883 69.461 20.418 69.718 20.96C69.973 21.501 70.216 22.048 70.446 22.602C70.675 23.155 70.89 23.714 71.092 24.278C71.294 24.842 71.482 25.411 71.656 25.984C71.829 26.558 71.989 27.135 72.135 27.716C72.28 28.297 72.411 28.881 72.528 29.469C72.645 30.057 72.747 30.647 72.835 31.239C72.923 31.832 72.996 32.426 73.055 33.023C73.114 33.618 73.158 34.216 73.187 34.814C73.217 35.413 73.231 36.011 73.231 36.61C73.232 37.602 73.335 38.583 73.542 39.552C73.749 40.522 74.055 41.46 74.459 42.365L80.118 55.074C80.27 55.416 80.386 55.771 80.464 56.137C80.542 56.504 80.581 56.875 80.582 57.249C80.582 57.624 80.544 57.995 80.467 58.361C80.39 58.728 80.276 59.083 80.124 59.426C79.973 59.769 79.788 60.092 79.569 60.396C79.35 60.7 79.102 60.978 78.825 61.231C78.547 61.482 78.247 61.703 77.924 61.893C77.6 62.082 77.261 62.235 76.905 62.354L73.241 63.563V74.852C73.241 74.991 73.238 75.131 73.231 75.271C73.224 75.411 73.214 75.55 73.2 75.689C73.186 75.829 73.169 75.968 73.148 76.106C73.128 76.245 73.104 76.382 73.077 76.52C73.05 76.657 73.019 76.793 72.985 76.929C72.951 77.064 72.914 77.199 72.873 77.334C72.832 77.467 72.788 77.6 72.742 77.732C72.695 77.864 72.644 77.994 72.591 78.124C72.537 78.253 72.48 78.38 72.421 78.507C72.361 78.634 72.298 78.759 72.232 78.882C72.166 79.005 72.098 79.127 72.025 79.247C71.953 79.367 71.879 79.485 71.801 79.602C71.723 79.718 71.643 79.833 71.559 79.945C71.476 80.058 71.39 80.168 71.302 80.276C71.213 80.384 71.121 80.49 71.028 80.594C70.934 80.698 70.837 80.799 70.739 80.898C70.64 80.997 70.538 81.093 70.435 81.188C70.331 81.281 70.225 81.373 70.117 81.462C70.009 81.551 69.899 81.637 69.786 81.72C69.674 81.804 69.56 81.884 69.444 81.962C69.327 82.04 69.209 82.115 69.089 82.187C68.969 82.259 68.848 82.328 68.724 82.394C68.601 82.46 68.476 82.523 68.349 82.583C68.223 82.643 68.095 82.7 67.966 82.753C67.837 82.807 67.706 82.857 67.575 82.904C67.443 82.952 67.31 82.996 67.176 83.037C67.042 83.077 66.908 83.115 66.772 83.149C66.637 83.183 66.5 83.214 66.363 83.241C66.225 83.269 66.088 83.293 65.949 83.314C65.811 83.334 65.672 83.351 65.533 83.365C65.393 83.379 65.254 83.389 65.115 83.397C64.974 83.403 64.835 83.407 64.695 83.407H53.262L51.008 91.301C50.986 91.377 50.961 91.451 50.932 91.524C50.904 91.597 50.871 91.669 50.835 91.738C50.8 91.808 50.76 91.877 50.718 91.942C50.675 92.008 50.63 92.072 50.581 92.134C50.532 92.195 50.48 92.254 50.426 92.311C50.371 92.367 50.314 92.421 50.254 92.472C50.194 92.523 50.132 92.57 50.067 92.615C50.003 92.66 49.936 92.702 49.868 92.74C49.799 92.778 49.729 92.813 49.657 92.844C49.584 92.875 49.511 92.903 49.436 92.927C49.362 92.951 49.286 92.971 49.209 92.988C49.132 93.005 49.055 93.018 48.977 93.026C48.899 93.036 48.821 93.041 48.742 93.042C48.663 93.044 48.585 93.041 48.507 93.035C48.429 93.028 48.35 93.018 48.273 93.004C48.196 92.99 48.119 92.972 48.044 92.951C47.969 92.929 47.894 92.904 47.821 92.875C47.748 92.846 47.677 92.814 47.607 92.778C47.537 92.742 47.469 92.703 47.403 92.661C47.337 92.618 47.273 92.572 47.211 92.524C47.15 92.475 47.091 92.423 47.034 92.369C46.978 92.314 46.924 92.257 46.873 92.197C46.822 92.137 46.775 92.075 46.73 92.01C46.685 91.946 46.643 91.879 46.605 91.811C46.567 91.742 46.533 91.671 46.501 91.6C46.47 91.527 46.442 91.454 46.418 91.379C46.394 91.305 46.373 91.229 46.357 91.152C46.34 91.075 46.327 90.998 46.318 90.92C46.309 90.842 46.304 90.763 46.303 90.685C46.302 90.606 46.304 90.528 46.31 90.45C46.317 90.371 46.327 90.294 46.341 90.216C46.355 90.139 46.373 90.063 46.394 89.987L49.147 80.396C49.182 80.272 49.228 80.151 49.283 80.034C49.338 79.917 49.403 79.806 49.475 79.699C49.549 79.593 49.63 79.493 49.72 79.399C49.808 79.306 49.905 79.221 50.008 79.143C50.111 79.065 50.22 78.996 50.334 78.936C50.449 78.876 50.567 78.825 50.689 78.784C50.812 78.743 50.936 78.712 51.064 78.691C51.192 78.67 51.32 78.66 51.449 78.659H64.685C64.808 78.659 64.931 78.653 65.053 78.64C65.176 78.628 65.297 78.61 65.417 78.585C65.538 78.561 65.657 78.531 65.775 78.495C65.892 78.46 66.008 78.418 66.121 78.371C66.235 78.323 66.346 78.271 66.454 78.212C66.562 78.154 66.667 78.091 66.769 78.023C66.872 77.954 66.97 77.88 67.065 77.802C67.16 77.724 67.251 77.642 67.338 77.555C67.425 77.468 67.507 77.377 67.585 77.281C67.663 77.187 67.736 77.088 67.804 76.985C67.872 76.883 67.935 76.778 67.993 76.669C68.051 76.561 68.103 76.45 68.15 76.336C68.197 76.223 68.239 76.107 68.274 75.989C68.31 75.872 68.34 75.752 68.364 75.632C68.388 75.511 68.406 75.39 68.417 75.268C68.43 75.145 68.435 75.023 68.435 74.899V61.865C68.436 61.74 68.446 61.615 68.465 61.492C68.485 61.369 68.514 61.247 68.552 61.128C68.591 61.009 68.638 60.894 68.695 60.783C68.751 60.671 68.816 60.565 68.889 60.463C68.962 60.362 69.043 60.267 69.131 60.178C69.219 60.089 69.313 60.008 69.414 59.934C69.515 59.86 69.62 59.794 69.731 59.737C69.842 59.679 69.957 59.631 70.076 59.591L75.39 57.836C75.47 57.816 75.541 57.78 75.606 57.729C75.67 57.677 75.722 57.614 75.759 57.541C75.797 57.468 75.817 57.39 75.822 57.308C75.826 57.225 75.813 57.146 75.783 57.069L70.133 44.389C69.589 43.173 69.177 41.914 68.899 40.611C68.621 39.308 68.483 37.99 68.484 36.658C68.485 35.614 68.435 34.573 68.334 33.534C68.234 32.494 68.082 31.463 67.879 30.439C67.677 29.415 67.425 28.403 67.122 27.403C66.82 26.404 66.47 25.422 66.071 24.457C65.672 23.492 65.227 22.549 64.735 21.628C64.244 20.708 63.708 19.813 63.128 18.944C62.549 18.076 61.928 17.239 61.265 16.432C60.603 15.625 59.903 14.852 59.165 14.113C58.427 13.375 57.654 12.675 56.847 12.013C56.04 11.351 55.202 10.73 54.334 10.15C53.466 9.57002 52.571 9.03501 51.65 8.54401C50.729 8.05201 49.786 7.60602 48.822 7.20802C47.857 6.80902 46.874 6.45901 45.875 6.15601C44.876 5.85401 43.864 5.60202 42.84 5.39902C41.816 5.19702 40.784 5.04502 39.745 4.94402C38.706 4.84302 37.665 4.79401 36.621 4.79501H36.524C36.139 4.79601 35.752 4.80402 35.365 4.81902C34.979 4.83502 34.594 4.85602 34.208 4.88602C33.823 4.91502 33.438 4.95102 33.054 4.99402C32.67 5.03702 32.287 5.08701 31.904 5.14501C31.522 5.20201 31.14 5.26601 30.761 5.33701C30.381 5.40801 30.003 5.48601 29.626 5.57001C29.248 5.65501 28.873 5.74702 28.499 5.84602C28.126 5.94402 27.754 6.04902 27.384 6.16202C27.014 6.27302 26.646 6.39301 26.28 6.51801C25.915 6.64401 25.552 6.77502 25.191 6.91402C24.83 7.05302 24.472 7.19801 24.116 7.35001C23.761 7.50201 23.408 7.66001 23.058 7.82501C22.709 7.98901 22.362 8.16001 22.019 8.33701C21.676 8.51501 21.336 8.69802 20.999 8.88802C20.662 9.07802 20.329 9.27301 19.999 9.47501C19.67 9.67701 19.344 9.88501 19.021 10.099C18.699 10.312 18.382 10.532 18.067 10.757C17.753 10.982 17.443 11.213 17.138 11.45C16.832 11.687 16.531 11.928 16.234 12.176C15.937 12.424 15.645 12.677 15.357 12.935C15.07 13.193 14.787 13.457 14.509 13.725C14.231 13.994 13.958 14.267 13.69 14.545C13.422 14.824 13.159 15.107 12.901 15.396C12.643 15.684 12.391 15.976 12.144 16.273C11.897 16.571 11.656 16.873 11.42 17.178C11.183 17.484 10.953 17.795 10.728 18.109C10.504 18.424 10.285 18.742 10.072 19.064C9.85804 19.387 9.65104 19.713 9.45004 20.043C9.24904 20.374 9.05404 20.707 8.86504 21.044C8.67604 21.381 8.49303 21.722 8.31603 22.065C8.14003 22.409 7.97003 22.756 7.80603 23.106C7.64103 23.456 7.48403 23.809 7.33303 24.165C7.18103 24.521 7.03703 24.879 6.89903 25.24C6.76103 25.601 6.63004 25.964 6.50504 26.33C6.38004 26.696 6.26203 27.064 6.15003 27.434C6.03903 27.804 5.93404 28.176 5.83704 28.55C5.73904 28.924 5.64703 29.3 5.56303 29.677C5.47903 30.054 5.40203 30.433 5.33203 30.813C5.26203 31.193 5.19804 31.574 5.14104 31.957C5.08604 32.339 5.03603 32.722 4.99303 33.106C4.95103 33.491 4.91603 33.876 4.88803 34.261C4.85803 34.647 4.83804 35.032 4.82304 35.418C4.80804 35.805 4.80203 36.191 4.80103 36.578C4.80103 36.964 4.80704 37.351 4.82104 37.737C4.83504 38.123 4.85603 38.509 4.88403 38.895C4.91203 39.28 4.94604 39.665 4.98804 40.049C5.03004 40.434 5.07903 40.817 5.13603 41.199C5.19103 41.582 5.25404 41.963 5.32404 42.343C5.39304 42.723 5.47103 43.102 5.55403 43.48C5.63803 43.857 5.72704 44.232 5.82504 44.606C5.92304 44.981 6.02603 45.353 6.13803 45.723C6.24803 46.093 6.36604 46.461 6.49004 46.828C6.61404 47.193 6.74503 47.557 6.88303 47.919C7.02003 48.28 7.16503 48.638 7.31503 48.994C7.46603 49.35 7.62303 49.703 7.78603 50.054C7.95003 50.404 8.12004 50.751 8.29604 51.095C8.47204 51.439 8.65403 51.78 8.84303 52.117C9.03103 52.455 9.22603 52.789 9.42703 53.119C9.62803 53.449 9.83404 53.775 10.047 54.098C10.26 54.421 10.478 54.74 10.702 55.055C10.927 55.37 11.156 55.68 11.391 55.986C11.628 56.293 11.869 56.595 12.115 56.893C12.362 57.19 12.614 57.483 12.871 57.772C13.129 58.06 13.39 58.344 13.658 58.623C13.804 58.774 13.927 58.941 14.028 59.126C14.13 59.309 14.206 59.503 14.256 59.707C14.306 59.91 14.33 60.117 14.326 60.327C14.322 60.536 14.292 60.742 14.234 60.944L8.99703 79.312C8.97503 79.387 8.95004 79.461 8.92204 79.535C8.89204 79.607 8.86004 79.679 8.82404 79.749C8.78904 79.819 8.75003 79.887 8.70703 79.953C8.66403 80.019 8.61904 80.083 8.57004 80.145C8.52104 80.206 8.47003 80.265 8.41503 80.321C8.36003 80.378 8.30303 80.432 8.24303 80.482C8.18303 80.533 8.12103 80.581 8.05603 80.626C7.99203 80.67 7.92603 80.712 7.85603 80.751C7.78803 80.789 7.71803 80.823 7.64503 80.855C7.57403 80.886 7.50003 80.914 7.42603 80.938C7.35003 80.961 7.27504 80.982 7.19804 80.999C7.12104 81.015 7.04403 81.028 6.96603 81.037C6.88803 81.046 6.80903 81.051 6.73103 81.053C6.65203 81.054 6.57403 81.052 6.49603 81.045C6.41803 81.039 6.34003 81.029 6.26303 81.015C6.18503 81.001 6.10804 80.983 6.03304 80.961C5.95804 80.94 5.88404 80.915 5.81004 80.886C5.73704 80.857 5.66603 80.825 5.59603 80.789C5.52603 80.753 5.45804 80.714 5.39104 80.671C5.32604 80.629 5.26204 80.583 5.20004 80.534C5.13904 80.485 5.08003 80.434 5.02303 80.379C4.96703 80.325 4.91303 80.268 4.86203 80.208C4.81103 80.148 4.76403 80.085 4.71903 80.021C4.67403 79.957 4.63303 79.89 4.59503 79.821C4.55603 79.752 4.52104 79.682 4.49004 79.61C4.45904 79.538 4.43104 79.465 4.40704 79.39C4.38304 79.315 4.36303 79.239 4.34703 79.163C4.33003 79.086 4.31604 79.008 4.30704 78.93C4.29904 78.852 4.29404 78.774 4.29204 78.695C4.29104 78.617 4.29303 78.539 4.30003 78.46C4.30603 78.382 4.31603 78.304 4.33003 78.227C4.34503 78.149 4.36203 78.073 4.38403 77.998L9.24603 60.905C8.84603 60.458 8.45603 60.001 8.07803 59.533C7.69903 59.066 7.33303 58.59 6.97803 58.105C6.62403 57.619 6.28203 57.126 5.95203 56.623C5.62203 56.121 5.30503 55.61 5.00003 55.092C4.69503 54.574 4.40404 54.049 4.12604 53.516C3.84804 52.983 3.58203 52.444 3.33103 51.898C3.07903 51.353 2.84103 50.801 2.61703 50.244C2.39203 49.686 2.18203 49.123 1.98603 48.555C1.79003 47.987 1.60803 47.414 1.44003 46.837C1.27203 46.26 1.11903 45.679 0.980034 45.094C0.842034 44.509 0.718033 43.921 0.607033 43.331C0.498033 42.74 0.403036 42.147 0.323036 41.551C0.243036 40.955 0.178036 40.358 0.128036 39.759C0.0770365 39.16 0.0420342 38.56 0.0210342 37.96C0.00103424 37.359 -0.00496405 36.758 0.00403595 36.157C0.0140359 35.556 0.038034 34.956 0.077034 34.356Z" fill="white"/>
</g>
<mask id="mask1_61_34" style="mask-type:luminance" maskUnits="userSpaceOnUse" x="13" y="14" width="50" height="54">
<path d="M13.1315 67.1308H62.0854V14.0798H13.1315V67.1308Z" fill="white"/>
</mask>
<g mask="url(#mask1_61_34)">
<path d="M37.6083 48.8203C37.5303 48.8203 37.4523 48.8163 37.3743 48.8083C37.2963 48.8003 37.2173 48.7893 37.1403 48.7743C37.0633 48.7583 36.9873 48.7393 36.9123 48.7163C36.8373 48.6943 36.7633 48.6673 36.6913 48.6373C36.6183 48.6073 36.5473 48.5743 36.4783 48.5373C36.4093 48.5003 36.3413 48.4593 36.2763 48.4163C36.2113 48.3723 36.1483 48.3253 36.0873 48.2763C36.0263 48.2263 35.9683 48.1733 35.9133 48.1173C35.8573 48.0623 35.8043 48.0043 35.7543 47.9433C35.7053 47.8833 35.6583 47.8203 35.6153 47.7543C35.5713 47.6893 35.5313 47.6223 35.4943 47.5523C35.4573 47.4833 35.4223 47.4123 35.3933 47.3403C35.3633 47.2673 35.3373 47.1933 35.3143 47.1183C35.2913 47.0433 35.2723 46.9673 35.2563 46.8903C35.2413 46.8133 35.2293 46.7353 35.2223 46.6573C35.2143 46.5793 35.2113 46.5013 35.2113 46.4223V29.8673C34.9823 29.7963 34.7573 29.7153 34.5373 29.6243C34.3153 29.5333 34.0983 29.4323 33.8863 29.3223C33.6743 29.2123 33.4673 29.0933 33.2663 28.9643C33.0643 28.8363 32.8693 28.6983 32.6793 28.5523C32.4903 28.4063 32.3073 28.2533 32.1323 28.0913C31.9573 27.9283 31.7883 27.7583 31.6283 27.5823C31.4663 27.4043 31.3143 27.2203 31.1713 27.0303C31.0263 26.8403 30.8903 26.6433 30.7633 26.4403C30.6363 26.2373 30.5193 26.0293 30.4113 25.8173C30.3023 25.6033 30.2043 25.3863 30.1153 25.1643C30.0253 24.9423 29.9463 24.7173 29.8783 24.4883C29.8083 24.2593 29.7503 24.0283 29.7013 23.7943C29.6533 23.5593 29.6153 23.3233 29.5873 23.0863C29.5593 22.8493 29.5433 22.6113 29.5363 22.3713C29.5303 22.1333 29.5343 21.8943 29.5483 21.6553C29.5633 21.4173 29.5883 21.1793 29.6253 20.9433C29.6613 20.7063 29.7073 20.4723 29.7633 20.2403C29.8203 20.0083 29.8873 19.7783 29.9643 19.5523C30.0423 19.3253 30.1293 19.1033 30.2253 18.8843C30.3223 18.6663 30.4283 18.4523 30.5453 18.2433C30.6603 18.0343 30.7853 17.8303 30.9193 17.6323C31.0533 17.4343 31.1953 17.2423 31.3463 17.0573C31.4983 16.8713 31.6563 16.6933 31.8233 16.5223C31.9903 16.3503 32.1643 16.1873 32.3453 16.0313C32.5263 15.8753 32.7143 15.7283 32.9093 15.5893C33.1033 15.4493 33.3033 15.3193 33.5093 15.1973C33.7153 15.0763 33.9263 14.9643 34.1423 14.8623C34.3583 14.7593 34.5783 14.6663 34.8023 14.5833C35.0263 14.5003 35.2543 14.4273 35.4843 14.3643C35.7143 14.3013 35.9483 14.2483 36.1833 14.2063C36.4193 14.1643 36.6553 14.1323 36.8933 14.1113C37.1313 14.0903 37.3703 14.0793 37.6093 14.0793C37.8483 14.0793 38.0873 14.0903 38.3253 14.1123C38.5633 14.1323 38.7993 14.1643 39.0353 14.2073C39.2703 14.2493 39.5043 14.3013 39.7343 14.3643C39.9643 14.4273 40.1923 14.5003 40.4163 14.5843C40.6403 14.6673 40.8603 14.7593 41.0763 14.8623C41.2923 14.9653 41.5033 15.0773 41.7093 15.1983C41.9153 15.3203 42.1153 15.4503 42.3093 15.5893C42.5043 15.7283 42.6913 15.8763 42.8733 16.0323C43.0543 16.1883 43.2283 16.3513 43.3953 16.5233C43.5613 16.6943 43.7203 16.8723 43.8713 17.0583C44.0223 17.2433 44.1643 17.4353 44.2983 17.6333C44.4323 17.8313 44.5573 18.0343 44.6733 18.2433C44.7893 18.4533 44.8953 18.6673 44.9923 18.8853C45.0883 19.1043 45.1753 19.3263 45.2533 19.5523C45.3293 19.7793 45.3963 20.0083 45.4533 20.2403C45.5103 20.4723 45.5563 20.7073 45.5923 20.9433C45.6283 21.1793 45.6533 21.4173 45.6683 21.6553C45.6833 21.8943 45.6873 22.1333 45.6803 22.3723C45.6743 22.6113 45.6573 22.8493 45.6293 23.0873C45.6023 23.3243 45.5643 23.5603 45.5153 23.7943C45.4673 24.0283 45.4083 24.2593 45.3393 24.4883C45.2703 24.7173 45.1913 24.9433 45.1023 25.1643C45.0133 25.3863 44.9143 25.6043 44.8063 25.8173C44.6973 26.0303 44.5803 26.2373 44.4533 26.4403C44.3263 26.6433 44.1913 26.8403 44.0463 27.0303C43.9023 27.2213 43.7503 27.4043 43.5893 27.5823C43.4283 27.7583 43.2603 27.9283 43.0853 28.0913C42.9093 28.2533 42.7263 28.4063 42.5373 28.5523C42.3473 28.6983 42.1523 28.8363 41.9513 28.9643C41.7493 29.0933 41.5423 29.2123 41.3303 29.3223C41.1183 29.4323 40.9013 29.5333 40.6803 29.6243C40.4593 29.7153 40.2343 29.7963 40.0063 29.8673V46.4223C40.0063 46.5013 40.0033 46.5793 39.9953 46.6573C39.9873 46.7353 39.9753 46.8133 39.9603 46.8903C39.9453 46.9673 39.9253 47.0433 39.9033 47.1183C39.8803 47.1933 39.8543 47.2673 39.8243 47.3403C39.7943 47.4123 39.7603 47.4833 39.7233 47.5523C39.6863 47.6223 39.6463 47.6893 39.6023 47.7543C39.5583 47.8203 39.5113 47.8833 39.4623 47.9433C39.4123 48.0043 39.3593 48.0623 39.3033 48.1173C39.2493 48.1733 39.1903 48.2263 39.1293 48.2763C39.0693 48.3253 39.0053 48.3723 38.9403 48.4163C38.8763 48.4593 38.8083 48.5003 38.7393 48.5373C38.6703 48.5743 38.5983 48.6073 38.5263 48.6373C38.4543 48.6673 38.3793 48.6943 38.3043 48.7163C38.2293 48.7393 38.1533 48.7583 38.0763 48.7743C37.9993 48.7893 37.9213 48.8003 37.8433 48.8083C37.7653 48.8163 37.6873 48.8203 37.6083 48.8203ZM39.9293 19.8443C39.7773 19.6913 39.6123 19.5553 39.4323 19.4353C39.2543 19.3153 39.0643 19.2143 38.8653 19.1323C38.6663 19.0493 38.4613 18.9873 38.2493 18.9463C38.0383 18.9043 37.8243 18.8843 37.6083 18.8843C37.5013 18.8853 37.3933 18.8903 37.2873 18.9013C37.1793 18.9113 37.0743 18.9273 36.9683 18.9483C36.8633 18.9683 36.7583 18.9953 36.6563 19.0263C36.5533 19.0573 36.4523 19.0933 36.3533 19.1343C36.2543 19.1753 36.1573 19.2213 36.0623 19.2723C35.9673 19.3223 35.8763 19.3783 35.7863 19.4383C35.6973 19.4973 35.6103 19.5613 35.5273 19.6293C35.4443 19.6973 35.3653 19.7703 35.2893 19.8453C35.2123 19.9223 35.1403 20.0013 35.0733 20.0843C35.0043 20.1673 34.9403 20.2533 34.8803 20.3423C34.8213 20.4323 34.7663 20.5243 34.7153 20.6193C34.6653 20.7143 34.6193 20.8103 34.5783 20.9103C34.5373 21.0093 34.5013 21.1103 34.4693 21.2133C34.4383 21.3163 34.4123 21.4203 34.3913 21.5253C34.3703 21.6313 34.3543 21.7373 34.3433 21.8433C34.3343 21.9503 34.3283 22.0583 34.3283 22.1653C34.3283 22.2733 34.3343 22.3803 34.3433 22.4873C34.3543 22.5933 34.3703 22.6993 34.3913 22.8053C34.4123 22.9103 34.4383 23.0143 34.4693 23.1173C34.5013 23.2203 34.5373 23.3213 34.5783 23.4203C34.6193 23.5203 34.6653 23.6163 34.7153 23.7113C34.7663 23.8063 34.8213 23.8983 34.8803 23.9873C34.9403 24.0773 35.0043 24.1633 35.0733 24.2463C35.1403 24.3293 35.2123 24.4083 35.2893 24.4853C35.3653 24.5603 35.4443 24.6333 35.5273 24.7013C35.6103 24.7693 35.6973 24.8333 35.7863 24.8923C35.8763 24.9523 35.9673 25.0083 36.0623 25.0583C36.1573 25.1093 36.2543 25.1543 36.3533 25.1953C36.4523 25.2373 36.5533 25.2733 36.6563 25.3043C36.7583 25.3353 36.8633 25.3623 36.9683 25.3823C37.0743 25.4033 37.1793 25.4193 37.2873 25.4293C37.3933 25.4403 37.5013 25.4453 37.6083 25.4453C37.7693 25.4453 37.9293 25.4333 38.0883 25.4093C38.2483 25.3853 38.4043 25.3503 38.5583 25.3033C38.7123 25.2563 38.8623 25.1983 39.0073 25.1293C39.1533 25.0603 39.2933 24.9813 39.4263 24.8913C39.5603 24.8023 39.6863 24.7033 39.8053 24.5953C39.9243 24.4873 40.0363 24.3713 40.1373 24.2463C40.2403 24.1223 40.3323 23.9903 40.4153 23.8533C40.4983 23.7153 40.5703 23.5713 40.6313 23.4233C40.6933 23.2743 40.7443 23.1223 40.7833 22.9663C40.8223 22.8093 40.8503 22.6523 40.8663 22.4913C40.8823 22.3313 40.8863 22.1713 40.8793 22.0103C40.8713 21.8493 40.8513 21.6903 40.8213 21.5323C40.7903 21.3743 40.7473 21.2193 40.6933 21.0683C40.6393 20.9163 40.5753 20.7693 40.4993 20.6273C40.4233 20.4853 40.3383 20.3493 40.2433 20.2193C40.1473 20.0903 40.0433 19.9673 39.9293 19.8533V19.8443ZM43.2963 67.1303C43.2173 67.1303 43.1393 67.1263 43.0613 67.1183C42.9833 67.1113 42.9053 67.0993 42.8283 67.0843C42.7523 67.0693 42.6753 67.0493 42.6003 67.0273C42.5253 67.0043 42.4513 66.9783 42.3793 66.9473C42.3063 66.9183 42.2353 66.8843 42.1663 66.8473C42.0963 66.8103 42.0293 66.7703 41.9633 66.7263C41.8983 66.6823 41.8363 66.6353 41.7753 66.5863C41.7143 66.5363 41.6563 66.4833 41.6003 66.4283C41.5453 66.3723 41.4923 66.3143 41.4423 66.2543C41.3923 66.1933 41.3463 66.1303 41.3023 66.0643C41.2583 65.9993 41.2183 65.9323 41.1813 65.8623C41.1443 65.7933 41.1113 65.7223 41.0813 65.6503C41.0503 65.5773 41.0243 65.5043 41.0023 65.4283C40.9783 65.3533 40.9603 65.2773 40.9443 65.2003C40.9293 65.1233 40.9183 65.0463 40.9103 64.9673C40.9023 64.8893 40.8983 64.8113 40.8983 64.7323V54.1913C40.8963 53.9773 40.9223 53.7663 40.9773 53.5593C41.0313 53.3523 41.1123 53.1553 41.2193 52.9703C41.3273 52.7843 41.4563 52.6163 41.6083 52.4653C41.7603 52.3153 41.9293 52.1863 42.1163 52.0813L51.6123 46.7293V43.2853C51.3833 43.2153 51.1593 43.1333 50.9383 43.0433C50.7173 42.9523 50.5003 42.8513 50.2883 42.7413C50.0763 42.6313 49.8693 42.5113 49.6683 42.3833C49.4663 42.2543 49.2713 42.1173 49.0813 41.9713C48.8923 41.8253 48.7093 41.6713 48.5333 41.5093C48.3583 41.3473 48.1903 41.1773 48.0293 41.0003C47.8683 40.8233 47.7163 40.6393 47.5713 40.4483C47.4273 40.2583 47.2923 40.0613 47.1653 39.8593C47.0383 39.6563 46.9213 39.4483 46.8123 39.2353C46.7043 39.0223 46.6053 38.8043 46.5163 38.5833C46.4273 38.3613 46.3483 38.1353 46.2793 37.9063C46.2103 37.6773 46.1513 37.4463 46.1033 37.2123C46.0543 36.9783 46.0163 36.7423 45.9883 36.5053C45.9613 36.2673 45.9443 36.0293 45.9383 35.7903C45.9313 35.5513 45.9353 35.3123 45.9503 35.0743C45.9653 34.8353 45.9903 34.5973 46.0263 34.3613C46.0623 34.1253 46.1083 33.8903 46.1653 33.6583C46.2223 33.4263 46.2893 33.1963 46.3663 32.9703C46.4433 32.7443 46.5303 32.5223 46.6273 32.3033C46.7243 32.0843 46.8303 31.8703 46.9463 31.6613C47.0623 31.4523 47.1873 31.2493 47.3203 31.0503C47.4543 30.8523 47.5973 30.6613 47.7483 30.4753C47.8993 30.2903 48.0583 30.1123 48.2243 29.9403C48.3913 29.7693 48.5653 29.6053 48.7473 29.4493C48.9283 29.2943 49.1163 29.1463 49.3103 29.0073C49.5043 28.8683 49.7053 28.7373 49.9113 28.6163C50.1173 28.4953 50.3283 28.3833 50.5443 28.2803C50.7593 28.1773 50.9803 28.0853 51.2043 28.0023C51.4283 27.9183 51.6553 27.8453 51.8863 27.7823C52.1163 27.7193 52.3493 27.6673 52.5853 27.6253C52.8203 27.5833 53.0573 27.5513 53.2953 27.5293C53.5333 27.5083 53.7723 27.4983 54.0113 27.4983C54.2503 27.4983 54.4883 27.5083 54.7263 27.5303C54.9643 27.5513 55.2013 27.5833 55.4373 27.6253C55.6723 27.6673 55.9053 27.7203 56.1353 27.7833C56.3663 27.8463 56.5933 27.9193 56.8173 28.0023C57.0423 28.0853 57.2623 28.1783 57.4783 28.2813C57.6933 28.3833 57.9043 28.4953 58.1103 28.6173C58.3163 28.7383 58.5163 28.8683 58.7113 29.0083C58.9053 29.1473 59.0933 29.2953 59.2743 29.4503C59.4553 29.6063 59.6293 29.7703 59.7963 29.9413C59.9633 30.1123 60.1223 30.2913 60.2733 30.4763C60.4233 30.6613 60.5663 30.8533 60.7003 31.0513C60.8343 31.2493 60.9593 31.4533 61.0743 31.6623C61.1903 31.8713 61.2963 32.0853 61.3933 32.3043C61.4903 32.5223 61.5773 32.7453 61.6543 32.9713C61.7313 33.1973 61.7983 33.4263 61.8553 33.6593C61.9113 33.8913 61.9583 34.1253 61.9933 34.3623C62.0293 34.5983 62.0553 34.8363 62.0693 35.0743C62.0843 35.3133 62.0883 35.5513 62.0823 35.7913C62.0763 36.0293 62.0593 36.2683 62.0313 36.5053C62.0043 36.7423 61.9653 36.9783 61.9173 37.2133C61.8683 37.4463 61.8103 37.6783 61.7413 37.9073C61.6713 38.1363 61.5923 38.3613 61.5043 38.5833C61.4143 38.8053 61.3163 39.0223 61.2073 39.2363C61.0993 39.4483 60.9813 39.6563 60.8553 39.8593C60.7283 40.0623 60.5923 40.2583 60.4483 40.4493C60.3033 40.6393 60.1513 40.8233 59.9903 41.0003C59.8303 41.1773 59.6623 41.3473 59.4863 41.5093C59.3103 41.6713 59.1283 41.8253 58.9393 41.9713C58.7493 42.1173 58.5533 42.2543 58.3523 42.3833C58.1503 42.5113 57.9433 42.6313 57.7323 42.7413C57.5193 42.8513 57.3033 42.9523 57.0823 43.0433C56.8603 43.1333 56.6363 43.2153 56.4083 43.2853V48.0813C56.4083 48.2943 56.3803 48.5033 56.3253 48.7083C56.2703 48.9133 56.1893 49.1083 56.0823 49.2923C55.9753 49.4753 55.8453 49.6423 55.6943 49.7913C55.5433 49.9413 55.3753 50.0683 55.1903 50.1723L45.6943 55.5243V64.7423C45.6933 64.8203 45.6903 64.8983 45.6813 64.9763C45.6733 65.0543 45.6623 65.1323 45.6463 65.2083C45.6303 65.2853 45.6113 65.3613 45.5883 65.4363C45.5663 65.5103 45.5393 65.5843 45.5083 65.6563C45.4793 65.7293 45.4453 65.7993 45.4083 65.8683C45.3713 65.9373 45.3303 66.0043 45.2863 66.0703C45.2433 66.1343 45.1963 66.1973 45.1463 66.2573C45.0963 66.3183 45.0443 66.3763 44.9883 66.4313C44.9333 66.4873 44.8753 66.5393 44.8143 66.5893C44.7543 66.6383 44.6913 66.6843 44.6253 66.7283C44.5603 66.7713 44.4933 66.8123 44.4243 66.8483C44.3553 66.8853 44.2843 66.9193 44.2123 66.9483C44.1393 66.9783 44.0663 67.0053 43.9903 67.0283C43.9163 67.0503 43.8393 67.0693 43.7633 67.0843C43.6863 67.0993 43.6083 67.1113 43.5303 67.1183C43.4523 67.1263 43.3743 67.1303 43.2963 67.1303ZM56.3403 33.2533C56.1883 33.1003 56.0233 32.9643 55.8433 32.8443C55.6643 32.7243 55.4753 32.6233 55.2763 32.5413C55.0773 32.4593 54.8713 32.3973 54.6603 32.3553C54.4483 32.3133 54.2353 32.2933 54.0193 32.2943C53.9123 32.2943 53.8053 32.2993 53.6983 32.3093C53.5913 32.3203 53.4853 32.3363 53.3793 32.3573C53.2743 32.3783 53.1703 32.4033 53.0673 32.4353C52.9643 32.4663 52.8633 32.5023 52.7643 32.5433C52.6653 32.5853 52.5683 32.6313 52.4733 32.6813C52.3783 32.7323 52.2863 32.7873 52.1973 32.8463C52.1083 32.9063 52.0223 32.9703 51.9383 33.0383C51.8553 33.1063 51.7763 33.1783 51.7003 33.2553C51.6243 33.3303 51.5523 33.4103 51.4833 33.4933C51.4163 33.5763 51.3523 33.6623 51.2923 33.7523C51.2323 33.8413 51.1773 33.9333 51.1273 34.0283C51.0763 34.1223 51.0303 34.2193 50.9893 34.3193C50.9483 34.4183 50.9113 34.5193 50.8803 34.6223C50.8493 34.7243 50.8233 34.8293 50.8023 34.9343C50.7813 35.0393 50.7653 35.1463 50.7553 35.2533C50.7443 35.3603 50.7393 35.4663 50.7393 35.5743C50.7393 35.6813 50.7443 35.7893 50.7553 35.8963C50.7653 36.0033 50.7813 36.1093 50.8023 36.2143C50.8233 36.3193 50.8493 36.4243 50.8803 36.5263C50.9113 36.6293 50.9483 36.7303 50.9893 36.8293C51.0303 36.9283 51.0763 37.0263 51.1273 37.1203C51.1773 37.2153 51.2323 37.3073 51.2923 37.3963C51.3523 37.4863 51.4163 37.5723 51.4833 37.6553C51.5523 37.7383 51.6243 37.8183 51.7003 37.8933C51.7763 37.9693 51.8553 38.0423 51.9383 38.1103C52.0223 38.1783 52.1083 38.2423 52.1973 38.3013C52.2863 38.3613 52.3783 38.4163 52.4733 38.4673C52.5683 38.5183 52.6653 38.5633 52.7643 38.6053C52.8633 38.6463 52.9643 38.6823 53.0673 38.7133C53.1703 38.7443 53.2743 38.7703 53.3793 38.7913C53.4853 38.8123 53.5913 38.8283 53.6983 38.8393C53.8053 38.8493 53.9123 38.8543 54.0193 38.8543C54.1803 38.8543 54.3403 38.8423 54.5003 38.8183C54.6593 38.7943 54.8153 38.7593 54.9693 38.7123C55.1233 38.6653 55.2733 38.6073 55.4183 38.5383C55.5643 38.4693 55.7033 38.3903 55.8373 38.3003C55.9713 38.2113 56.0973 38.1123 56.2163 38.0043C56.3363 37.8963 56.4463 37.7793 56.5483 37.6553C56.6503 37.5313 56.7433 37.4003 56.8263 37.2613C56.9093 37.1243 56.9813 36.9803 57.0433 36.8323C57.1053 36.6833 57.1553 36.5303 57.1943 36.3753C57.2333 36.2183 57.2613 36.0603 57.2773 35.9003C57.2933 35.7403 57.2973 35.5793 57.2903 35.4193C57.2823 35.2583 57.2633 35.0993 57.2323 34.9413C57.2013 34.7833 57.1583 34.6283 57.1043 34.4763C57.0503 34.3253 56.9863 34.1783 56.9103 34.0363C56.8353 33.8933 56.7493 33.7573 56.6543 33.6283C56.5583 33.4983 56.4543 33.3773 56.3403 33.2623V33.2533ZM31.9213 67.1303C31.8423 67.1303 31.7633 67.1263 31.6853 67.1183C31.6073 67.1113 31.5303 67.0993 31.4533 67.0843C31.3763 67.0693 31.2993 67.0493 31.2243 67.0273C31.1493 67.0043 31.0763 66.9783 31.0033 66.9473C30.9303 66.9183 30.8593 66.8843 30.7903 66.8473C30.7213 66.8103 30.6543 66.7703 30.5883 66.7263C30.5233 66.6823 30.4603 66.6353 30.3993 66.5863C30.3383 66.5363 30.2813 66.4833 30.2253 66.4283C30.1703 66.3723 30.1173 66.3143 30.0673 66.2543C30.0173 66.1933 29.9703 66.1303 29.9263 66.0643C29.8833 65.9993 29.8423 65.9323 29.8053 65.8623C29.7693 65.7933 29.7353 65.7223 29.7053 65.6503C29.6753 65.5773 29.6493 65.5043 29.6263 65.4283C29.6033 65.3533 29.5843 65.2773 29.5693 65.2003C29.5533 65.1233 29.5423 65.0463 29.5343 64.9673C29.5263 64.8893 29.5233 64.8113 29.5233 64.7323V55.5633L20.0273 50.2113C19.8413 50.1063 19.6733 49.9793 19.5223 49.8303C19.3713 49.6803 19.2423 49.5143 19.1343 49.3303C19.0283 49.1463 18.9473 48.9523 18.8913 48.7473C18.8373 48.5413 18.8083 48.3323 18.8093 48.1203V43.3243C18.5813 43.2533 18.3563 43.1723 18.1343 43.0813C17.9143 42.9903 17.6973 42.8893 17.4853 42.7793C17.2733 42.6693 17.0663 42.5493 16.8653 42.4213C16.6633 42.2933 16.4673 42.1553 16.2783 42.0093C16.0883 41.8633 15.9063 41.7093 15.7303 41.5473C15.5543 41.3853 15.3863 41.2163 15.2263 41.0383C15.0653 40.8623 14.9133 40.6773 14.7683 40.4873C14.6253 40.2963 14.4893 40.1003 14.3623 39.8973C14.2353 39.6953 14.1183 39.4873 14.0093 39.2743C13.9013 39.0603 13.8023 38.8433 13.7123 38.6213C13.6243 38.3993 13.5453 38.1743 13.4763 37.9453C13.4073 37.7163 13.3483 37.4853 13.2993 37.2513C13.2513 37.0163 13.2123 36.7803 13.1853 36.5433C13.1583 36.3063 13.1413 36.0683 13.1343 35.8283C13.1293 35.5903 13.1323 35.3513 13.1473 35.1123C13.1623 34.8733 13.1873 34.6363 13.2233 34.4003C13.2593 34.1633 13.3053 33.9293 13.3623 33.6963C13.4193 33.4653 13.4863 33.2353 13.5633 33.0093C13.6403 32.7823 13.7273 32.5603 13.8243 32.3413C13.9213 32.1233 14.0273 31.9093 14.1433 31.7003C14.2583 31.4903 14.3833 31.2873 14.5173 31.0893C14.6513 30.8913 14.7943 30.6993 14.9453 30.5143C15.0953 30.3283 15.2543 30.1503 15.4213 29.9793C15.5883 29.8073 15.7623 29.6443 15.9443 29.4883C16.1253 29.3323 16.3133 29.1853 16.5073 29.0453C16.7023 28.9063 16.9023 28.7763 17.1083 28.6543C17.3143 28.5333 17.5253 28.4213 17.7413 28.3193C17.9573 28.2163 18.1763 28.1233 18.4013 28.0403C18.6253 27.9573 18.8523 27.8843 19.0833 27.8213C19.3133 27.7583 19.5463 27.7053 19.7823 27.6633C20.0173 27.6213 20.2543 27.5893 20.4923 27.5683C20.7303 27.5473 20.9683 27.5363 21.2083 27.5363C21.4473 27.5373 21.6853 27.5483 21.9223 27.5703C22.1613 27.5913 22.3973 27.6243 22.6323 27.6673C22.8673 27.7093 23.0993 27.7623 23.3303 27.8263C23.5603 27.8893 23.7883 27.9633 24.0113 28.0463C24.2353 28.1303 24.4553 28.2233 24.6703 28.3263C24.8853 28.4293 25.0963 28.5413 25.3013 28.6633C25.5073 28.7853 25.7073 28.9153 25.9013 29.0553C26.0943 29.1943 26.2823 29.3423 26.4623 29.4983C26.6443 29.6543 26.8173 29.8183 26.9843 29.9893C27.1503 30.1613 27.3083 30.3393 27.4593 30.5253C27.6093 30.7103 27.7523 30.9023 27.8843 31.1003C28.0183 31.2983 28.1423 31.5023 28.2583 31.7113C28.3743 31.9203 28.4793 32.1343 28.5763 32.3523C28.6723 32.5713 28.7583 32.7933 28.8363 33.0203C28.9123 33.2463 28.9783 33.4753 29.0353 33.7073C29.0913 33.9393 29.1373 34.1743 29.1723 34.4093C29.2093 34.6463 29.2333 34.8833 29.2483 35.1213C29.2623 35.3603 29.2663 35.5983 29.2593 35.8373C29.2533 36.0763 29.2363 36.3143 29.2083 36.5513C29.1803 36.7883 29.1423 37.0243 29.0933 37.2583C29.0453 37.4923 28.9863 37.7233 28.9173 37.9513C28.8473 38.1803 28.7683 38.4053 28.6793 38.6273C28.5893 38.8483 28.4913 39.0663 28.3823 39.2783C28.2743 39.4913 28.1573 39.6993 28.0303 39.9023C27.9033 40.1043 27.7673 40.3003 27.6233 40.4903C27.4793 40.6813 27.3273 40.8643 27.1663 41.0413C27.0053 41.2183 26.8373 41.3873 26.6623 41.5493C26.4863 41.7113 26.3033 41.8653 26.1143 42.0113C25.9253 42.1563 25.7303 42.2943 25.5283 42.4223C25.3273 42.5503 25.1203 42.6703 24.9083 42.7803C24.6963 42.8903 24.4803 42.9903 24.2593 43.0813C24.0383 43.1723 23.8133 43.2533 23.5863 43.3243V46.7573L33.1003 52.0813C33.2873 52.1863 33.4563 52.3153 33.6083 52.4653C33.7603 52.6163 33.8903 52.7843 33.9983 52.9703C34.1043 53.1553 34.1853 53.3523 34.2403 53.5593C34.2953 53.7663 34.3203 53.9773 34.3183 54.1913V64.7423C34.3183 64.8203 34.3143 64.8983 34.3063 64.9763C34.2973 65.0543 34.2863 65.1323 34.2713 65.2083C34.2553 65.2853 34.2363 65.3613 34.2123 65.4363C34.1903 65.5103 34.1643 65.5843 34.1333 65.6563C34.1033 65.7293 34.0693 65.7993 34.0323 65.8683C33.9953 65.9373 33.9553 66.0043 33.9113 66.0703C33.8673 66.1343 33.8213 66.1973 33.7713 66.2573C33.7213 66.3183 33.6693 66.3763 33.6133 66.4313C33.5573 66.4873 33.4993 66.5393 33.4383 66.5893C33.3783 66.6383 33.3153 66.6843 33.2503 66.7283C33.1843 66.7713 33.1183 66.8123 33.0483 66.8483C32.9793 66.8853 32.9083 66.9193 32.8363 66.9483C32.7633 66.9783 32.6903 67.0053 32.6153 67.0283C32.5403 67.0503 32.4633 67.0693 32.3873 67.0843C32.3103 67.0993 32.2333 67.1113 32.1553 67.1183C32.0773 67.1263 31.9993 67.1303 31.9213 67.1303ZM23.5283 33.2533C23.3763 33.1003 23.2113 32.9643 23.0313 32.8443C22.8523 32.7243 22.6633 32.6233 22.4633 32.5413C22.2643 32.4593 22.0593 32.3973 21.8473 32.3553C21.6353 32.3133 21.4223 32.2933 21.2073 32.2943C21.0993 32.2943 20.9923 32.2993 20.8853 32.3093C20.7783 32.3203 20.6723 32.3363 20.5673 32.3573C20.4623 32.3783 20.3573 32.4033 20.2543 32.4353C20.1523 32.4663 20.0503 32.5023 19.9523 32.5433C19.8523 32.5853 19.7553 32.6313 19.6613 32.6813C19.5663 32.7323 19.4733 32.7873 19.3843 32.8463C19.2953 32.9063 19.2093 32.9703 19.1263 33.0383C19.0433 33.1063 18.9633 33.1783 18.8873 33.2553C18.8113 33.3303 18.7393 33.4103 18.6713 33.4933C18.6033 33.5763 18.5393 33.6623 18.4793 33.7523C18.4203 33.8413 18.3653 33.9333 18.3143 34.0283C18.2633 34.1223 18.2173 34.2193 18.1763 34.3193C18.1353 34.4183 18.0993 34.5193 18.0683 34.6223C18.0373 34.7243 18.0103 34.8293 17.9903 34.9343C17.9683 35.0393 17.9533 35.1463 17.9423 35.2533C17.9313 35.3603 17.9263 35.4663 17.9263 35.5743C17.9263 35.6813 17.9313 35.7893 17.9423 35.8963C17.9533 36.0033 17.9683 36.1093 17.9903 36.2143C18.0103 36.3193 18.0373 36.4243 18.0683 36.5263C18.0993 36.6293 18.1353 36.7303 18.1763 36.8293C18.2173 36.9283 18.2633 37.0263 18.3143 37.1203C18.3653 37.2153 18.4203 37.3073 18.4793 37.3963C18.5393 37.4863 18.6033 37.5723 18.6713 37.6553C18.7393 37.7383 18.8113 37.8183 18.8873 37.8933C18.9633 37.9693 19.0433 38.0423 19.1263 38.1103C19.2093 38.1783 19.2953 38.2423 19.3843 38.3013C19.4733 38.3613 19.5663 38.4163 19.6613 38.4673C19.7553 38.5183 19.8523 38.5633 19.9523 38.6053C20.0503 38.6463 20.1523 38.6823 20.2543 38.7133C20.3573 38.7443 20.4623 38.7703 20.5673 38.7913C20.6723 38.8123 20.7783 38.8283 20.8853 38.8393C20.9923 38.8493 21.0993 38.8543 21.2073 38.8543C21.3683 38.8543 21.5283 38.8423 21.6873 38.8183C21.8463 38.7943 22.0033 38.7583 22.1573 38.7123C22.3103 38.6653 22.4613 38.6073 22.6063 38.5383C22.7523 38.4693 22.8903 38.3903 23.0243 38.3003C23.1583 38.2113 23.2853 38.1123 23.4043 38.0043C23.5233 37.8963 23.6333 37.7793 23.7363 37.6553C23.8383 37.5313 23.9303 37.4003 24.0133 37.2613C24.0963 37.1243 24.1693 36.9803 24.2303 36.8323C24.2923 36.6833 24.3423 36.5303 24.3813 36.3753C24.4203 36.2183 24.4493 36.0603 24.4643 35.9003C24.4803 35.7403 24.4853 35.5793 24.4773 35.4193C24.4693 35.2583 24.4503 35.0993 24.4193 34.9413C24.3883 34.7833 24.3453 34.6283 24.2923 34.4763C24.2383 34.3253 24.1733 34.1783 24.0973 34.0363C24.0223 33.8933 23.9373 33.7573 23.8413 33.6283C23.7463 33.4983 23.6413 33.3773 23.5283 33.2623V33.2533Z" fill="white"/>
</g>
</g>
<defs>
<clipPath id="clip0_61_34">
<rect width="80.5821" height="93.0426" fill="white"/>
</clipPath>
</defs>
</svg>
