<svg width="33" height="33" viewBox="0 0 33 33" fill="none" xmlns="http://www.w3.org/2000/svg">
<path d="M0.25 31.7075L17.6719 14.2856L18.6094 15.2231L1.1875 32.645L0.25 31.7075ZM12.75 9.44189H18.0625V10.77H12.75V9.44189ZM27.3594 9.44189H32.75V10.77H27.3594V9.44189ZM22.0469 14.8325H23.375V20.145H22.0469V14.8325ZM22.0469 0.14502H23.375V5.45752H22.0469V0.14502ZM30.25 3.50439L26.5 7.33252L25.5625 6.39502L29.3125 2.56689L30.25 3.50439ZM29.3125 17.7231L25.5625 13.895L26.5 12.9575L30.25 16.7856L29.3125 17.7231ZM19 7.33252L15.1719 3.58252L16.1875 2.64502L19.9375 6.39502L19 7.33252Z" fill="#4BA7D8"/>
</svg>
