<svg width="103" height="103" viewBox="0 0 103 103" fill="none" xmlns="http://www.w3.org/2000/svg">
<path d="M51.5 89.4021L19.0455 70.625V33.0705L51.5 14.2932L83.9549 33.0705V70.625L51.5 89.4021ZM0.5 23.6818V0.5H23.6818V9.77271H9.77271V23.6818H0.5ZM23.6818 102.5H0.5V79.3182H9.77271V93.227H23.6818V102.5ZM79.3182 102.5V93.227H93.227V79.3182H102.5V102.5H79.3182ZM93.227 23.6818V9.77271H79.3182V0.5H102.5V23.6818H93.227ZM51.5 78.5068L56.1364 75.8409V54.5136L74.6818 43.85V38.4023L70.0455 35.7364L51.5 46.4L32.9545 35.7364L28.3182 38.4023V43.85L46.8636 54.5136V75.8409L51.5 78.5068Z" fill="#FBFBFB"/>
</svg>
